%TF.GenerationSoftware,KiCad,Pcbnew,10.0.3*%
%TF.CreationDate,2026-07-03T22:07:11+05:30*%
%TF.ProjectId,keyboard,6b657962-6f61-4726-942e-6b696361645f,rev?*%
%TF.SameCoordinates,Original*%
%TF.FileFunction,Copper,L2,Bot*%
%TF.FilePolarity,Positive*%
%FSLAX46Y46*%
G04 Gerber Fmt 4.6, Leading zero omitted, Abs format (unit mm)*
G04 Created by KiCad (PCBNEW 10.0.3) date 2026-07-03 22:07:11*
%MOMM*%
%LPD*%
G01*
G04 APERTURE LIST*
G04 Aperture macros list*
%AMRoundRect*
0 Rectangle with rounded corners*
0 $1 Rounding radius*
0 $2 $3 $4 $5 $6 $7 $8 $9 X,Y pos of 4 corners*
0 Add a 4 corners polygon primitive as box body*
4,1,4,$2,$3,$4,$5,$6,$7,$8,$9,$2,$3,0*
0 Add four circle primitives for the rounded corners*
1,1,$1+$1,$2,$3*
1,1,$1+$1,$4,$5*
1,1,$1+$1,$6,$7*
1,1,$1+$1,$8,$9*
0 Add four rect primitives between the rounded corners*
20,1,$1+$1,$2,$3,$4,$5,0*
20,1,$1+$1,$4,$5,$6,$7,0*
20,1,$1+$1,$6,$7,$8,$9,0*
20,1,$1+$1,$8,$9,$2,$3,0*%
%AMFreePoly0*
4,1,37,0.603843,0.796157,0.639018,0.796157,0.711114,0.766294,0.766294,0.711114,0.796157,0.639018,0.796157,0.603843,0.800000,0.600000,0.800000,-0.600000,0.796157,-0.603843,0.796157,-0.639018,0.766294,-0.711114,0.711114,-0.766294,0.639018,-0.796157,0.603843,-0.796157,0.600000,-0.800000,0.000000,-0.800000,0.000000,-0.796148,-0.078414,-0.796148,-0.232228,-0.765552,-0.377117,-0.705537,
-0.507515,-0.618408,-0.618408,-0.507515,-0.705537,-0.377117,-0.765552,-0.232228,-0.796148,-0.078414,-0.796148,0.078414,-0.765552,0.232228,-0.705537,0.377117,-0.618408,0.507515,-0.507515,0.618408,-0.377117,0.705537,-0.232228,0.765552,-0.078414,0.796148,0.000000,0.796148,0.000000,0.800000,0.600000,0.800000,0.603843,0.796157,0.603843,0.796157,$1*%
%AMFreePoly1*
4,1,37,0.000000,0.796148,0.078414,0.796148,0.232228,0.765552,0.377117,0.705537,0.507515,0.618408,0.618408,0.507515,0.705537,0.377117,0.765552,0.232228,0.796148,0.078414,0.796148,-0.078414,0.765552,-0.232228,0.705537,-0.377117,0.618408,-0.507515,0.507515,-0.618408,0.377117,-0.705537,0.232228,-0.765552,0.078414,-0.796148,0.000000,-0.796148,0.000000,-0.800000,-0.600000,-0.800000,
-0.603843,-0.796157,-0.639018,-0.796157,-0.711114,-0.766294,-0.766294,-0.711114,-0.796157,-0.639018,-0.796157,-0.603843,-0.800000,-0.600000,-0.800000,0.600000,-0.796157,0.603843,-0.796157,0.639018,-0.766294,0.711114,-0.711114,0.766294,-0.639018,0.796157,-0.603843,0.796157,-0.600000,0.800000,0.000000,0.800000,0.000000,0.796148,0.000000,0.796148,$1*%
G04 Aperture macros list end*
%TA.AperFunction,ComponentPad*%
%ADD10C,2.300000*%
%TD*%
%TA.AperFunction,ComponentPad*%
%ADD11RoundRect,0.250000X0.550000X-0.550000X0.550000X0.550000X-0.550000X0.550000X-0.550000X-0.550000X0*%
%TD*%
%TA.AperFunction,ComponentPad*%
%ADD12C,1.600000*%
%TD*%
%TA.AperFunction,ComponentPad*%
%ADD13RoundRect,0.200000X-0.600000X-0.600000X0.600000X-0.600000X0.600000X0.600000X-0.600000X0.600000X0*%
%TD*%
%TA.AperFunction,ComponentPad*%
%ADD14FreePoly0,0.000000*%
%TD*%
%TA.AperFunction,ComponentPad*%
%ADD15FreePoly1,0.000000*%
%TD*%
%TA.AperFunction,ViaPad*%
%ADD16C,0.500000*%
%TD*%
%TA.AperFunction,Conductor*%
%ADD17C,0.300000*%
%TD*%
G04 APERTURE END LIST*
D10*
%TO.P,SW17,2,2_2*%
%TO.N,Net-(D81-A)*%
X586770000Y107620000D03*
%TO.P,SW17,1,1_1*%
%TO.N,/COL8*%
X580420000Y105080000D03*
%TD*%
D11*
%TO.P,D59,1,K_1*%
%TO.N,/ROW5*%
X294300000Y59380000D03*
D12*
%TO.P,D59,2,A_2*%
%TO.N,Net-(D82-A)*%
X294300000Y67000000D03*
%TD*%
D10*
%TO.P,SW60,1,1_1*%
%TO.N,/COL1*%
X280990000Y65540000D03*
%TO.P,SW60,2,2_2*%
%TO.N,Net-(D18-A)*%
X287340000Y68080000D03*
%TD*%
D11*
%TO.P,D7,1,K_1*%
%TO.N,/ROW0*%
X427800000Y116690000D03*
D12*
%TO.P,D7,2,A_2*%
%TO.N,Net-(D2-A)*%
X427800000Y124310000D03*
%TD*%
D10*
%TO.P,SW43,1,1_1*%
%TO.N,/COL12*%
X356990000Y84540000D03*
%TO.P,SW43,2,2_2*%
%TO.N,Net-(D60-A)*%
X363340000Y87080000D03*
%TD*%
%TO.P,SW12,1,1_1*%
%TO.N,/COL13*%
X338300000Y122580000D03*
%TO.P,SW12,2,2_2*%
%TO.N,Net-(D45-A)*%
X344650000Y125120000D03*
%TD*%
%TO.P,SW48,1,1_1*%
%TO.N,/COL5*%
X261990000Y84540000D03*
%TO.P,SW48,2,2_2*%
%TO.N,Net-(D5-A)*%
X268340000Y87080000D03*
%TD*%
D11*
%TO.P,D47,1,K_1*%
%TO.N,/ROW2*%
X275300000Y78380000D03*
D12*
%TO.P,D47,2,A_2*%
%TO.N,Net-(D43-A)*%
X275300000Y86000000D03*
%TD*%
D11*
%TO.P,D29,1,K_1*%
%TO.N,/ROW5*%
X446800000Y96880000D03*
D12*
%TO.P,D29,2,A_2*%
%TO.N,Net-(D77-A)*%
X446800000Y104500000D03*
%TD*%
D11*
%TO.P,D9,1,K_1*%
%TO.N,/ROW3*%
X370800000Y116380000D03*
D12*
%TO.P,D9,2,A_2*%
%TO.N,Net-(D56-A)*%
X370800000Y124000000D03*
%TD*%
D11*
%TO.P,D2,1,K_1*%
%TO.N,/ROW4*%
X574920000Y117460000D03*
D12*
%TO.P,D2,2,A_2*%
%TO.N,Net-(D75-A)*%
X574920000Y125080000D03*
%TD*%
D11*
%TO.P,D22,1,K_1*%
%TO.N,/ROW0*%
X465300000Y97380000D03*
D12*
%TO.P,D22,2,A_2*%
%TO.N,Net-(D6-A)*%
X465300000Y105000000D03*
%TD*%
D11*
%TO.P,D41,1,K_1*%
%TO.N,/ROW5*%
X313300000Y78880000D03*
D12*
%TO.P,D41,2,A_2*%
%TO.N,Net-(D79-A)*%
X313300000Y86500000D03*
%TD*%
D11*
%TO.P,D60,1,K_1*%
%TO.N,/ROW4*%
X275300000Y58880000D03*
D12*
%TO.P,D60,2,A_2*%
%TO.N,Net-(D64-A)*%
X275300000Y66500000D03*
%TD*%
D10*
%TO.P,SW10,1,1_1*%
%TO.N,/COL6*%
X376300000Y122580000D03*
%TO.P,SW10,2,2_2*%
%TO.N,Net-(D67-A)*%
X382650000Y125120000D03*
%TD*%
D11*
%TO.P,D66,1,K_1*%
%TO.N,/ROW4*%
X313300000Y40880000D03*
D12*
%TO.P,D66,2,A_2*%
%TO.N,Net-(D67-A)*%
X313300000Y48500000D03*
%TD*%
D10*
%TO.P,SW14,1,1_1*%
%TO.N,/COL7*%
X300070000Y122540000D03*
%TO.P,SW14,2,2_2*%
%TO.N,Net-(D23-A)*%
X306420000Y125080000D03*
%TD*%
D11*
%TO.P,D87,1,K_1*%
%TO.N,/ROW0*%
X275300000Y20880000D03*
D12*
%TO.P,D87,2,A_2*%
%TO.N,Net-(D16-A)*%
X275300000Y28500000D03*
%TD*%
D11*
%TO.P,D65,1,K_1*%
%TO.N,/ROW0*%
X352300000Y40880000D03*
D12*
%TO.P,D65,2,A_2*%
%TO.N,Net-(D14-A)*%
X352300000Y48500000D03*
%TD*%
D11*
%TO.P,D8,1,K_1*%
%TO.N,/ROW1*%
X389800000Y116380000D03*
D12*
%TO.P,D8,2,A_2*%
%TO.N,Net-(D20-A)*%
X389800000Y124000000D03*
%TD*%
D10*
%TO.P,SW21,1,1_1*%
%TO.N,/COL5*%
X470950000Y103460000D03*
%TO.P,SW21,2,2_2*%
%TO.N,Net-(D37-A)*%
X477300000Y106000000D03*
%TD*%
D11*
%TO.P,D28,1,K_1*%
%TO.N,/ROW0*%
X275300000Y97380000D03*
D12*
%TO.P,D28,2,A_2*%
%TO.N,Net-(D4-A)*%
X275300000Y105000000D03*
%TD*%
D11*
%TO.P,D86,1,K_1*%
%TO.N,/ROW1*%
X379300000Y20880000D03*
D12*
%TO.P,D86,2,A_2*%
%TO.N,Net-(D17-A)*%
X379300000Y28500000D03*
%TD*%
D11*
%TO.P,D54,1,K_1*%
%TO.N,/ROW2*%
X351800000Y59880000D03*
D12*
%TO.P,D54,2,A_2*%
%TO.N,Net-(D47-A)*%
X351800000Y67500000D03*
%TD*%
D10*
%TO.P,SW66,1,1_1*%
%TO.N,/COL15*%
X433720000Y46500000D03*
%TO.P,SW66,2,2_2*%
%TO.N,Net-(D75-A)*%
X440070000Y49040000D03*
%TD*%
D11*
%TO.P,D23,1,K_1*%
%TO.N,/ROW0*%
X370300000Y97380000D03*
D12*
%TO.P,D23,2,A_2*%
%TO.N,Net-(D5-A)*%
X370300000Y105000000D03*
%TD*%
D11*
%TO.P,D56,1,K_1*%
%TO.N,/ROW5*%
X389300000Y59380000D03*
D12*
%TO.P,D56,2,A_2*%
%TO.N,Net-(D83-A)*%
X389300000Y67000000D03*
%TD*%
D11*
%TO.P,D24,1,K_1*%
%TO.N,/ROW5*%
X351300000Y97380000D03*
D12*
%TO.P,D24,2,A_2*%
%TO.N,Net-(D76-A)*%
X351300000Y105000000D03*
%TD*%
D11*
%TO.P,D64,1,K_1*%
%TO.N,/ROW0*%
X446800000Y40880000D03*
D12*
%TO.P,D64,2,A_2*%
%TO.N,Net-(D15-A)*%
X446800000Y48500000D03*
%TD*%
D11*
%TO.P,D83,1,K_1*%
%TO.N,/ROW2*%
X294300000Y21880000D03*
D12*
%TO.P,D83,2,A_2*%
%TO.N,Net-(D34-A)*%
X294300000Y29500000D03*
%TD*%
D10*
%TO.P,SW61,1,1_1*%
%TO.N,/COL7*%
X261990000Y65540000D03*
%TO.P,SW61,2,2_2*%
%TO.N,Net-(D7-A)*%
X268340000Y68080000D03*
%TD*%
D11*
%TO.P,D49,1,K_1*%
%TO.N,/ROW0*%
X408300000Y60380000D03*
D12*
%TO.P,D49,2,A_2*%
%TO.N,Net-(D12-A)*%
X408300000Y68000000D03*
%TD*%
D11*
%TO.P,D63,1,K_1*%
%TO.N,/ROW3*%
X485300000Y41190000D03*
D12*
%TO.P,D63,2,A_2*%
%TO.N,Net-(D51-A)*%
X485300000Y48810000D03*
%TD*%
D10*
%TO.P,SW54,1,1_1*%
%TO.N,/COL12*%
X394910000Y65540000D03*
%TO.P,SW54,2,2_2*%
%TO.N,Net-(D84-A)*%
X401260000Y68080000D03*
%TD*%
%TO.P,SW6,1,1_1*%
%TO.N,/COL8*%
X452490000Y122580000D03*
%TO.P,SW6,2,2_2*%
%TO.N,Net-(D24-A)*%
X458840000Y125120000D03*
%TD*%
D11*
%TO.P,D6,1,K_1*%
%TO.N,/ROW0*%
X465800000Y116380000D03*
D12*
%TO.P,D6,2,A_2*%
%TO.N,Net-(D3-A)*%
X465800000Y124000000D03*
%TD*%
D11*
%TO.P,D44,1,K_1*%
%TO.N,/ROW5*%
X408300000Y78380000D03*
D12*
%TO.P,D44,2,A_2*%
%TO.N,Net-(D80-A)*%
X408300000Y86000000D03*
%TD*%
D10*
%TO.P,SW86,1,1_1*%
%TO.N,/COL4*%
X280960000Y27500000D03*
%TO.P,SW86,2,2_2*%
%TO.N,Net-(D65-A)*%
X287310000Y30040000D03*
%TD*%
D11*
%TO.P,D50,1,K_1*%
%TO.N,/ROW0*%
X503300000Y59880000D03*
D12*
%TO.P,D50,2,A_2*%
%TO.N,Net-(D13-A)*%
X503300000Y67500000D03*
%TD*%
D11*
%TO.P,D3,1,K_1*%
%TO.N,/ROW3*%
X555920000Y117460000D03*
D12*
%TO.P,D3,2,A_2*%
%TO.N,Net-(D57-A)*%
X555920000Y125080000D03*
%TD*%
D11*
%TO.P,D4,1,K_1*%
%TO.N,/ROW4*%
X351800000Y117000000D03*
D12*
%TO.P,D4,2,A_2*%
%TO.N,Net-(D73-A)*%
X351800000Y124620000D03*
%TD*%
D10*
%TO.P,SW15,1,1_1*%
%TO.N,/COL12*%
X281070000Y122540000D03*
%TO.P,SW15,2,2_2*%
%TO.N,Net-(D12-A)*%
X287420000Y125080000D03*
%TD*%
%TO.P,SW59,1,1_1*%
%TO.N,/COL13*%
X299910000Y65540000D03*
%TO.P,SW59,2,2_2*%
%TO.N,Net-(D29-A)*%
X306260000Y68080000D03*
%TD*%
D11*
%TO.P,D13,1,K_1*%
%TO.N,/ROW2*%
X503800000Y115880000D03*
D12*
%TO.P,D13,2,A_2*%
%TO.N,Net-(D39-A)*%
X503800000Y123500000D03*
%TD*%
D10*
%TO.P,SW62,1,1_1*%
%TO.N,/COL11*%
X561110000Y48120000D03*
%TO.P,SW62,2,2_2*%
%TO.N,Net-(D43-A)*%
X567460000Y50660000D03*
%TD*%
%TO.P,SW29,1,1_1*%
%TO.N,/COL4*%
X319070000Y103540000D03*
%TO.P,SW29,2,2_2*%
%TO.N,Net-(D36-A)*%
X325420000Y106080000D03*
%TD*%
%TO.P,SW65,1,1_1*%
%TO.N,/COL14*%
X452640000Y46500000D03*
%TO.P,SW65,2,2_2*%
%TO.N,Net-(D86-A)*%
X458990000Y49040000D03*
%TD*%
%TO.P,SW44,1,1_1*%
%TO.N,/COL0*%
X337990000Y84540000D03*
%TO.P,SW44,2,2_2*%
%TO.N,Net-(D49-A)*%
X344340000Y87080000D03*
%TD*%
%TO.P,SW78,1,1_1*%
%TO.N,/COL6*%
X542530000Y29120000D03*
%TO.P,SW78,2,2_2*%
%TO.N,Net-(D22-A)*%
X548880000Y31660000D03*
%TD*%
%TO.P,SW40,1,1_1*%
%TO.N,/COL6*%
X413990000Y84540000D03*
%TO.P,SW40,2,2_2*%
%TO.N,Net-(D6-A)*%
X420340000Y87080000D03*
%TD*%
D11*
%TO.P,D26,1,K_1*%
%TO.N,/ROW2*%
X313300000Y97380000D03*
D12*
%TO.P,D26,2,A_2*%
%TO.N,Net-(D40-A)*%
X313300000Y105000000D03*
%TD*%
D10*
%TO.P,SW39,1,1_1*%
%TO.N,/COL0*%
X432990000Y84540000D03*
%TO.P,SW39,2,2_2*%
%TO.N,Net-(D17-A)*%
X439340000Y87080000D03*
%TD*%
%TO.P,SW30,1,1_1*%
%TO.N,/COL9*%
X300030000Y103460000D03*
%TO.P,SW30,2,2_2*%
%TO.N,Net-(D25-A)*%
X306380000Y106000000D03*
%TD*%
%TO.P,SW88,1,1_1*%
%TO.N,/COL11*%
X328896250Y26795000D03*
%TO.P,SW88,2,2_2*%
%TO.N,Net-(D11-A)*%
X335246250Y29335000D03*
%TD*%
%TO.P,SW32,1,1_1*%
%TO.N,/COL3*%
X262180000Y103540000D03*
%TO.P,SW32,2,2_2*%
%TO.N,Net-(D3-A)*%
X268530000Y106080000D03*
%TD*%
%TO.P,SW53,1,1_1*%
%TO.N,/COL8*%
X413990000Y65540000D03*
%TO.P,SW53,2,2_2*%
%TO.N,Net-(D8-A)*%
X420340000Y68080000D03*
%TD*%
D11*
%TO.P,D25,1,K_1*%
%TO.N,/ROW3*%
X332300000Y97380000D03*
D12*
%TO.P,D25,2,A_2*%
%TO.N,Net-(D58-A)*%
X332300000Y105000000D03*
%TD*%
D11*
%TO.P,D74,1,K_1*%
%TO.N,/ROW5*%
X428300000Y39880000D03*
D12*
%TO.P,D74,2,A_2*%
%TO.N,Net-(D86-A)*%
X428300000Y47500000D03*
%TD*%
D10*
%TO.P,SW83,1,1_1*%
%TO.N,/COL5*%
X433490000Y27540000D03*
%TO.P,SW83,2,2_2*%
%TO.N,Net-(D66-A)*%
X439840000Y30080000D03*
%TD*%
D11*
%TO.P,D79,1,K_1*%
%TO.N,/ROW4*%
X465800000Y22380000D03*
D12*
%TO.P,D79,2,A_2*%
%TO.N,Net-(D71-A)*%
X465800000Y30000000D03*
%TD*%
D10*
%TO.P,SW33,1,1_1*%
%TO.N,/COL11*%
X580110000Y86120000D03*
%TO.P,SW33,2,2_2*%
%TO.N,Net-(D83-A)*%
X586460000Y88660000D03*
%TD*%
%TO.P,SW76,1,1_1*%
%TO.N,/COL12*%
X580610000Y29120000D03*
%TO.P,SW76,2,2_2*%
%TO.N,Net-(D44-A)*%
X586960000Y31660000D03*
%TD*%
D11*
%TO.P,D71,1,K_1*%
%TO.N,/ROW1*%
X370800000Y40380000D03*
D12*
%TO.P,D71,2,A_2*%
%TO.N,Net-(D32-A)*%
X370800000Y48000000D03*
%TD*%
D11*
%TO.P,D69,1,K_1*%
%TO.N,/ROW2*%
X466300000Y40380000D03*
D12*
%TO.P,D69,2,A_2*%
%TO.N,Net-(D33-A)*%
X466300000Y48000000D03*
%TD*%
D11*
%TO.P,D36,1,K_1*%
%TO.N,/ROW5*%
X503800000Y79380000D03*
D12*
%TO.P,D36,2,A_2*%
%TO.N,Net-(D81-A)*%
X503800000Y87000000D03*
%TD*%
D10*
%TO.P,SW45,1,1_1*%
%TO.N,/COL6*%
X318990000Y84540000D03*
%TO.P,SW45,2,2_2*%
%TO.N,Net-(D38-A)*%
X325340000Y87080000D03*
%TD*%
%TO.P,SW31,1,1_1*%
%TO.N,/COL14*%
X281070000Y103540000D03*
%TO.P,SW31,2,2_2*%
%TO.N,Net-(D14-A)*%
X287420000Y106080000D03*
%TD*%
D11*
%TO.P,D42,1,K_1*%
%TO.N,/ROW1*%
X445800000Y78380000D03*
D12*
%TO.P,D42,2,A_2*%
%TO.N,Net-(D27-A)*%
X445800000Y86000000D03*
%TD*%
D10*
%TO.P,SW72,1,1_1*%
%TO.N,/COL9*%
X318990000Y46540000D03*
%TO.P,SW72,2,2_2*%
%TO.N,Net-(D9-A)*%
X325340000Y49080000D03*
%TD*%
%TO.P,SW38,1,1_1*%
%TO.N,/COL12*%
X451990000Y84540000D03*
%TO.P,SW38,2,2_2*%
%TO.N,Net-(D28-A)*%
X458340000Y87080000D03*
%TD*%
D11*
%TO.P,D32,1,K_1*%
%TO.N,/ROW2*%
X408300000Y96380000D03*
D12*
%TO.P,D32,2,A_2*%
%TO.N,Net-(D41-A)*%
X408300000Y104000000D03*
%TD*%
D10*
%TO.P,SW87,1,1_1*%
%TO.N,/COL6*%
X261960000Y27500000D03*
%TO.P,SW87,2,2_2*%
%TO.N,Net-(D54-A)*%
X268310000Y30040000D03*
%TD*%
D11*
%TO.P,D40,1,K_1*%
%TO.N,/ROW0*%
X332300000Y79190000D03*
D12*
%TO.P,D40,2,A_2*%
%TO.N,Net-(D8-A)*%
X332300000Y86810000D03*
%TD*%
D11*
%TO.P,D57,1,K_1*%
%TO.N,/ROW1*%
X332800000Y59380000D03*
D12*
%TO.P,D57,2,A_2*%
%TO.N,Net-(D29-A)*%
X332800000Y67000000D03*
%TD*%
D11*
%TO.P,D70,1,K_1*%
%TO.N,/ROW3*%
X390800000Y40380000D03*
D12*
%TO.P,D70,2,A_2*%
%TO.N,Net-(D50-A)*%
X390800000Y48000000D03*
%TD*%
D10*
%TO.P,SW70,1,1_1*%
%TO.N,/COL15*%
X357800000Y46500000D03*
%TO.P,SW70,2,2_2*%
%TO.N,Net-(D31-A)*%
X364150000Y49040000D03*
%TD*%
D11*
%TO.P,D68,1,K_1*%
%TO.N,/ROW1*%
X275300000Y40880000D03*
D12*
%TO.P,D68,2,A_2*%
%TO.N,Net-(D31-A)*%
X275300000Y48500000D03*
%TD*%
D11*
%TO.P,D34,1,K_1*%
%TO.N,/ROW1*%
X574920000Y80460000D03*
D12*
%TO.P,D34,2,A_2*%
%TO.N,Net-(D28-A)*%
X574920000Y88080000D03*
%TD*%
D10*
%TO.P,SW34,1,1_1*%
%TO.N,/COL11*%
X561110000Y86120000D03*
%TO.P,SW34,2,2_2*%
%TO.N,Net-(D72-A)*%
X567460000Y88660000D03*
%TD*%
%TO.P,SW20,1,1_1*%
%TO.N,/COL16*%
X489990000Y103540000D03*
%TO.P,SW20,2,2_2*%
%TO.N,Net-(D48-A)*%
X496340000Y106080000D03*
%TD*%
%TO.P,SW18,1,1_1*%
%TO.N,/COL9*%
X561070000Y105040000D03*
%TO.P,SW18,2,2_2*%
%TO.N,Net-(D70-A)*%
X567420000Y107580000D03*
%TD*%
%TO.P,SW67,1,1_1*%
%TO.N,/COL3*%
X414720000Y46500000D03*
%TO.P,SW67,2,2_2*%
%TO.N,Net-(D64-A)*%
X421070000Y49040000D03*
%TD*%
D11*
%TO.P,D76,1,K_1*%
%TO.N,/ROW4*%
X593800000Y22380000D03*
D12*
%TO.P,D76,2,A_2*%
%TO.N,Net-(D72-A)*%
X593800000Y30000000D03*
%TD*%
D11*
%TO.P,D18,1,K_1*%
%TO.N,/ROW3*%
X555920000Y98460000D03*
D12*
%TO.P,D18,2,A_2*%
%TO.N,Net-(D60-A)*%
X555920000Y106080000D03*
%TD*%
D10*
%TO.P,SW36,1,1_1*%
%TO.N,/COL1*%
X489990000Y84540000D03*
%TO.P,SW36,2,2_2*%
%TO.N,Net-(D50-A)*%
X496340000Y87080000D03*
%TD*%
%TO.P,SW16,1,1_1*%
%TO.N,/COL0*%
X262070000Y122540000D03*
%TO.P,SW16,2,2_2*%
%TO.N,Net-(D1-A)*%
X268420000Y125080000D03*
%TD*%
%TO.P,SW58,1,1_1*%
%TO.N,/COL8*%
X318990000Y65540000D03*
%TO.P,SW58,2,2_2*%
%TO.N,Net-(D40-A)*%
X325340000Y68080000D03*
%TD*%
D11*
%TO.P,D85,1,K_1*%
%TO.N,/ROW2*%
X503800000Y20880000D03*
D12*
%TO.P,D85,2,A_2*%
%TO.N,Net-(D36-A)*%
X503800000Y28500000D03*
%TD*%
D11*
%TO.P,D80,1,K_1*%
%TO.N,/ROW2*%
X417800000Y22380000D03*
D12*
%TO.P,D80,2,A_2*%
%TO.N,Net-(D35-A)*%
X417800000Y30000000D03*
%TD*%
D11*
%TO.P,D72,1,K_1*%
%TO.N,/ROW5*%
X332800000Y40380000D03*
D12*
%TO.P,D72,2,A_2*%
%TO.N,Net-(D85-A)*%
X332800000Y48000000D03*
%TD*%
D11*
%TO.P,D81,1,K_1*%
%TO.N,/ROW1*%
X484800000Y21880000D03*
D12*
%TO.P,D81,2,A_2*%
%TO.N,Net-(D18-A)*%
X484800000Y29500000D03*
%TD*%
D10*
%TO.P,SW55,1,1_1*%
%TO.N,/COL12*%
X375990000Y65540000D03*
%TO.P,SW55,2,2_2*%
%TO.N,Net-(D73-A)*%
X382340000Y68080000D03*
%TD*%
%TO.P,SW56,1,1_1*%
%TO.N,/COL0*%
X356990000Y65540000D03*
%TO.P,SW56,2,2_2*%
%TO.N,Net-(D62-A)*%
X363340000Y68080000D03*
%TD*%
%TO.P,SW25,1,1_1*%
%TO.N,/COL6*%
X395070000Y103540000D03*
%TO.P,SW25,2,2_2*%
%TO.N,Net-(D80-A)*%
X401420000Y106080000D03*
%TD*%
D11*
%TO.P,D46,1,K_1*%
%TO.N,/ROW3*%
X294300000Y78380000D03*
D12*
%TO.P,D46,2,A_2*%
%TO.N,Net-(D61-A)*%
X294300000Y86000000D03*
%TD*%
D10*
%TO.P,SW68,1,1_1*%
%TO.N,/COL5*%
X395800000Y46500000D03*
%TO.P,SW68,2,2_2*%
%TO.N,Net-(D53-A)*%
X402150000Y49040000D03*
%TD*%
D11*
%TO.P,D78,1,K_1*%
%TO.N,/ROW3*%
X555800000Y22380000D03*
D12*
%TO.P,D78,2,A_2*%
%TO.N,Net-(D54-A)*%
X555800000Y30000000D03*
%TD*%
D11*
%TO.P,D21,1,K_1*%
%TO.N,/ROW2*%
X502300000Y97380000D03*
D12*
%TO.P,D21,2,A_2*%
%TO.N,Net-(D42-A)*%
X502300000Y105000000D03*
%TD*%
D11*
%TO.P,D77,1,K_1*%
%TO.N,/ROW5*%
X574920000Y22460000D03*
D12*
%TO.P,D77,2,A_2*%
%TO.N,Net-(D88-A)*%
X574920000Y30080000D03*
%TD*%
D10*
%TO.P,SW77,1,1_1*%
%TO.N,/COL16*%
X561530000Y29120000D03*
%TO.P,SW77,2,2_2*%
%TO.N,Net-(D32-A)*%
X567880000Y31660000D03*
%TD*%
D11*
%TO.P,D38,1,K_1*%
%TO.N,/ROW2*%
X370300000Y78880000D03*
D12*
%TO.P,D38,2,A_2*%
%TO.N,Net-(D44-A)*%
X370300000Y86500000D03*
%TD*%
D11*
%TO.P,D45,1,K_1*%
%TO.N,/ROW4*%
X389300000Y78380000D03*
D12*
%TO.P,D45,2,A_2*%
%TO.N,Net-(D62-A)*%
X389300000Y86000000D03*
%TD*%
D10*
%TO.P,SW42,1,1_1*%
%TO.N,/COL10*%
X375990000Y84540000D03*
%TO.P,SW42,2,2_2*%
%TO.N,Net-(D71-A)*%
X382340000Y87080000D03*
%TD*%
D11*
%TO.P,D14,1,K_1*%
%TO.N,/ROW1*%
X484800000Y115880000D03*
D12*
%TO.P,D14,2,A_2*%
%TO.N,Net-(D21-A)*%
X484800000Y123500000D03*
%TD*%
D10*
%TO.P,SW7,1,1_1*%
%TO.N,/COL13*%
X433490000Y122540000D03*
%TO.P,SW7,2,2_2*%
%TO.N,Net-(D13-A)*%
X439840000Y125080000D03*
%TD*%
%TO.P,SW27,1,1_1*%
%TO.N,/COL10*%
X356990000Y103540000D03*
%TO.P,SW27,2,2_2*%
%TO.N,Net-(D58-A)*%
X363340000Y106080000D03*
%TD*%
%TO.P,SW52,1,1_1*%
%TO.N,/COL3*%
X432910000Y65540000D03*
%TO.P,SW52,2,2_2*%
%TO.N,Net-(D19-A)*%
X439260000Y68080000D03*
%TD*%
%TO.P,SW23,1,1_1*%
%TO.N,/COL15*%
X433070000Y103540000D03*
%TO.P,SW23,2,2_2*%
%TO.N,Net-(D15-A)*%
X439420000Y106080000D03*
%TD*%
%TO.P,SW24,1,1_1*%
%TO.N,/COL4*%
X414070000Y103580000D03*
%TO.P,SW24,2,2_2*%
%TO.N,Net-(D4-A)*%
X420420000Y106120000D03*
%TD*%
%TO.P,SW47,1,1_1*%
%TO.N,/COL16*%
X280990000Y84540000D03*
%TO.P,SW47,2,2_2*%
%TO.N,Net-(D16-A)*%
X287340000Y87080000D03*
%TD*%
D11*
%TO.P,D37,1,K_1*%
%TO.N,/ROW2*%
X465800000Y78880000D03*
D12*
%TO.P,D37,2,A_2*%
%TO.N,Net-(D45-A)*%
X465800000Y86500000D03*
%TD*%
D10*
%TO.P,SW41,1,1_1*%
%TO.N,/COL10*%
X394910000Y84540000D03*
%TO.P,SW41,2,2_2*%
%TO.N,Net-(D82-A)*%
X401260000Y87080000D03*
%TD*%
%TO.P,SW73,1,1_1*%
%TO.N,/COL13*%
X299990000Y46540000D03*
%TO.P,SW73,2,2_2*%
%TO.N,Net-(D85-A)*%
X306340000Y49080000D03*
%TD*%
%TO.P,SW19,1,1_1*%
%TO.N,/COL11*%
X542070000Y105040000D03*
%TO.P,SW19,2,2_2*%
%TO.N,Net-(D59-A)*%
X548420000Y107580000D03*
%TD*%
%TO.P,SW9,1,1_1*%
%TO.N,/COL3*%
X395300000Y122580000D03*
%TO.P,SW9,2,2_2*%
%TO.N,Net-(D78-A)*%
X401650000Y125120000D03*
%TD*%
%TO.P,SW50,1,1_1*%
%TO.N,/COL9*%
X470990000Y65540000D03*
%TO.P,SW50,2,2_2*%
%TO.N,Net-(D41-A)*%
X477340000Y68080000D03*
%TD*%
%TO.P,SW4,1,1_1*%
%TO.N,/COL14*%
X490490000Y122540000D03*
%TO.P,SW4,2,2_2*%
%TO.N,Net-(D46-A)*%
X496840000Y125080000D03*
%TD*%
D11*
%TO.P,D75,1,K_1*%
%TO.N,/ROW4*%
X408800000Y39880000D03*
D12*
%TO.P,D75,2,A_2*%
%TO.N,Net-(D68-A)*%
X408800000Y47500000D03*
%TD*%
D10*
%TO.P,SW84,1,1_1*%
%TO.N,/COL7*%
X404570000Y27540000D03*
%TO.P,SW84,2,2_2*%
%TO.N,Net-(D55-A)*%
X410920000Y30080000D03*
%TD*%
D11*
%TO.P,D12,1,K_1*%
%TO.N,/ROW0*%
X275300000Y116690000D03*
D12*
%TO.P,D12,2,A_2*%
%TO.N,Net-(D1-A)*%
X275300000Y124310000D03*
%TD*%
D11*
%TO.P,D52,1,K_1*%
%TO.N,/ROW1*%
X427300000Y59880000D03*
D12*
%TO.P,D52,2,A_2*%
%TO.N,Net-(D30-A)*%
X427300000Y67500000D03*
%TD*%
D10*
%TO.P,SW11,1,1_1*%
%TO.N,/COL8*%
X357300000Y122580000D03*
%TO.P,SW11,2,2_2*%
%TO.N,Net-(D56-A)*%
X363650000Y125120000D03*
%TD*%
%TO.P,SW46,1,1_1*%
%TO.N,/COL11*%
X299990000Y84540000D03*
%TO.P,SW46,2,2_2*%
%TO.N,Net-(D27-A)*%
X306340000Y87080000D03*
%TD*%
D11*
%TO.P,D31,1,K_1*%
%TO.N,/ROW1*%
X389300000Y96880000D03*
D12*
%TO.P,D31,2,A_2*%
%TO.N,Net-(D23-A)*%
X389300000Y104500000D03*
%TD*%
D10*
%TO.P,SW2,1,1_1*%
%TO.N,/COL7*%
X561570000Y124040000D03*
%TO.P,SW2,2,2_2*%
%TO.N,Net-(D68-A)*%
X567920000Y126580000D03*
%TD*%
%TO.P,SW71,1,1_1*%
%TO.N,/COL4*%
X338720000Y46500000D03*
%TO.P,SW71,2,2_2*%
%TO.N,Net-(D20-A)*%
X345070000Y49040000D03*
%TD*%
D11*
%TO.P,D5,1,K_1*%
%TO.N,/ROW3*%
X332800000Y116880000D03*
D12*
%TO.P,D5,2,A_2*%
%TO.N,Net-(D55-A)*%
X332800000Y124500000D03*
%TD*%
D11*
%TO.P,D39,1,K_1*%
%TO.N,/ROW1*%
X351300000Y78880000D03*
D12*
%TO.P,D39,2,A_2*%
%TO.N,Net-(D26-A)*%
X351300000Y86500000D03*
%TD*%
D10*
%TO.P,SW69,1,1_1*%
%TO.N,/COL10*%
X376800000Y46500000D03*
%TO.P,SW69,2,2_2*%
%TO.N,Net-(D42-A)*%
X383150000Y49040000D03*
%TD*%
D11*
%TO.P,D58,1,K_1*%
%TO.N,/ROW0*%
X313300000Y59380000D03*
D12*
%TO.P,D58,2,A_2*%
%TO.N,Net-(D11-A)*%
X313300000Y67000000D03*
%TD*%
D13*
%TO.P,A1,1,GPIO0_1*%
%TO.N,/ROW0*%
X511910000Y128817500D03*
D12*
%TO.P,A1,2,GPIO1_2*%
%TO.N,/ROW1*%
X511910000Y126277500D03*
D14*
%TO.P,A1,3,GND_3*%
%TO.N,unconnected-(A1-GND-Pad13)_5*%
X511910000Y123737500D03*
D12*
%TO.P,A1,4,GPIO2_4*%
%TO.N,/ROW2*%
X511910000Y121197500D03*
%TO.P,A1,5,GPIO3_5*%
%TO.N,/ROW3*%
X511910000Y118657500D03*
%TO.P,A1,6,GPIO4_6*%
%TO.N,/ROW4*%
X511910000Y116117500D03*
%TO.P,A1,7,GPIO5_7*%
%TO.N,/ROW5*%
X511910000Y113577500D03*
D14*
%TO.P,A1,8,GND_8*%
%TO.N,unconnected-(A1-GND-Pad13)_2*%
X511910000Y111037500D03*
D12*
%TO.P,A1,9,GPIO6_9*%
%TO.N,/COL0*%
X511910000Y108497500D03*
%TO.P,A1,10,GPIO7_10*%
%TO.N,/COL1*%
X511910000Y105957500D03*
%TO.P,A1,11,GPIO8_11*%
%TO.N,/COL2*%
X511910000Y103417500D03*
%TO.P,A1,12,GPIO9_12*%
%TO.N,/COL3*%
X511910000Y100877500D03*
D14*
%TO.P,A1,13,GND_13*%
%TO.N,unconnected-(A1-GND-Pad13)_3*%
X511910000Y98337500D03*
D12*
%TO.P,A1,14,GPIO10_14*%
%TO.N,/COL4*%
X511910000Y95797500D03*
%TO.P,A1,15,GPIO11_15*%
%TO.N,/COL5*%
X511910000Y93257500D03*
%TO.P,A1,16,GPIO12_16*%
%TO.N,/COL6*%
X511910000Y90717500D03*
%TO.P,A1,17,GPIO13_17*%
%TO.N,/COL7*%
X511910000Y88177500D03*
D14*
%TO.P,A1,18,GND_18*%
%TO.N,unconnected-(A1-GND-Pad13)_6*%
X511910000Y85637500D03*
D12*
%TO.P,A1,19,GPIO14_19*%
%TO.N,/COL8*%
X511910000Y83097500D03*
%TO.P,A1,20,GPIO15_20*%
%TO.N,/COL9*%
X511910000Y80557500D03*
%TO.P,A1,21,GPIO16_21*%
%TO.N,/COL10*%
X529690000Y80557500D03*
%TO.P,A1,22,GPIO17_22*%
%TO.N,/COL11*%
X529690000Y83097500D03*
D15*
%TO.P,A1,23,GND_23*%
%TO.N,unconnected-(A1-GND-Pad13)*%
X529690000Y85637500D03*
D12*
%TO.P,A1,24,GPIO18_24*%
%TO.N,/COL12*%
X529690000Y88177500D03*
%TO.P,A1,25,GPIO19_25*%
%TO.N,/COL13*%
X529690000Y90717500D03*
%TO.P,A1,26,GPIO20_26*%
%TO.N,/COL14*%
X529690000Y93257500D03*
%TO.P,A1,27,GPIO21_27*%
%TO.N,/COL15*%
X529690000Y95797500D03*
D15*
%TO.P,A1,28,GND_28*%
%TO.N,unconnected-(A1-GND-Pad13)_4*%
X529690000Y98337500D03*
D12*
%TO.P,A1,29,GPIO22_29*%
%TO.N,/COL16*%
X529690000Y100877500D03*
%TO.P,A1,30,RUN_30*%
%TO.N,unconnected-(A1-RUN-Pad30)*%
X529690000Y103417500D03*
%TO.P,A1,31,GPIO26_ADC0_31*%
%TO.N,unconnected-(A1-GPIO26_ADC0-Pad31)*%
X529690000Y105957500D03*
%TO.P,A1,32,GPIO27_ADC1_32*%
%TO.N,unconnected-(A1-GPIO27_ADC1-Pad32)*%
X529690000Y108497500D03*
D15*
%TO.P,A1,33,AGND_33*%
%TO.N,unconnected-(A1-AGND-Pad33)*%
X529690000Y111037500D03*
D12*
%TO.P,A1,34,GPIO28_ADC2_34*%
%TO.N,unconnected-(A1-GPIO28_ADC2-Pad34)*%
X529690000Y113577500D03*
%TO.P,A1,35,ADC_VREF_35*%
%TO.N,unconnected-(A1-ADC_VREF-Pad35)*%
X529690000Y116117500D03*
%TO.P,A1,36,3V3_36*%
%TO.N,unconnected-(A1-3V3-Pad36)*%
X529690000Y118657500D03*
%TO.P,A1,37,3V3_EN_37*%
%TO.N,unconnected-(A1-3V3_EN-Pad37)*%
X529690000Y121197500D03*
D15*
%TO.P,A1,38,GND_38*%
%TO.N,unconnected-(A1-GND-Pad13)_1*%
X529690000Y123737500D03*
D12*
%TO.P,A1,39,VSYS_39*%
%TO.N,unconnected-(A1-VSYS-Pad39)*%
X529690000Y126277500D03*
%TO.P,A1,40,VBUS_40*%
%TO.N,unconnected-(A1-VBUS-Pad40)*%
X529690000Y128817500D03*
%TD*%
D10*
%TO.P,SW51,1,1_1*%
%TO.N,/COL14*%
X451990000Y65540000D03*
%TO.P,SW51,2,2_2*%
%TO.N,Net-(D30-A)*%
X458340000Y68080000D03*
%TD*%
D11*
%TO.P,D43,1,K_1*%
%TO.N,/ROW0*%
X427300000Y78380000D03*
D12*
%TO.P,D43,2,A_2*%
%TO.N,Net-(D9-A)*%
X427300000Y86000000D03*
%TD*%
D11*
%TO.P,D84,1,K_1*%
%TO.N,/ROW3*%
X313300000Y21380000D03*
D12*
%TO.P,D84,2,A_2*%
%TO.N,Net-(D52-A)*%
X313300000Y29000000D03*
%TD*%
D10*
%TO.P,SW63,1,1_1*%
%TO.N,/COL5*%
X491070000Y46540000D03*
%TO.P,SW63,2,2_2*%
%TO.N,Net-(D21-A)*%
X497420000Y49080000D03*
%TD*%
D11*
%TO.P,D15,1,K_1*%
%TO.N,/ROW4*%
X447300000Y116190000D03*
D12*
%TO.P,D15,2,A_2*%
%TO.N,Net-(D74-A)*%
X447300000Y123810000D03*
%TD*%
D11*
%TO.P,D61,1,K_1*%
%TO.N,/ROW4*%
X465300000Y58380000D03*
D12*
%TO.P,D61,2,A_2*%
%TO.N,Net-(D66-A)*%
X465300000Y66000000D03*
%TD*%
D11*
%TO.P,D10,1,K_1*%
%TO.N,/ROW2*%
X313800000Y116380000D03*
D12*
%TO.P,D10,2,A_2*%
%TO.N,Net-(D37-A)*%
X313800000Y124000000D03*
%TD*%
D11*
%TO.P,D67,1,K_1*%
%TO.N,/ROW3*%
X294300000Y40880000D03*
D12*
%TO.P,D67,2,A_2*%
%TO.N,Net-(D49-A)*%
X294300000Y48500000D03*
%TD*%
D11*
%TO.P,D1,1,K_1*%
%TO.N,/ROW0*%
X593920000Y117960000D03*
D12*
%TO.P,D1,2,A_2*%
%TO.N,Net-(D7-A)*%
X593920000Y125580000D03*
%TD*%
D10*
%TO.P,SW5,1,1_1*%
%TO.N,/COL3*%
X471490000Y122540000D03*
%TO.P,SW5,2,2_2*%
%TO.N,Net-(D35-A)*%
X477840000Y125080000D03*
%TD*%
D11*
%TO.P,D16,1,K_1*%
%TO.N,/ROW2*%
X408800000Y115880000D03*
D12*
%TO.P,D16,2,A_2*%
%TO.N,Net-(D38-A)*%
X408800000Y123500000D03*
%TD*%
D10*
%TO.P,SW1,1,1_1*%
%TO.N,/COL4*%
X580610000Y123960000D03*
%TO.P,SW1,2,2_2*%
%TO.N,Net-(D79-A)*%
X586960000Y126500000D03*
%TD*%
D11*
%TO.P,D51,1,K_1*%
%TO.N,/ROW2*%
X446300000Y59880000D03*
D12*
%TO.P,D51,2,A_2*%
%TO.N,Net-(D48-A)*%
X446300000Y67500000D03*
%TD*%
D10*
%TO.P,SW49,1,1_1*%
%TO.N,/COL4*%
X489990000Y65540000D03*
%TO.P,SW49,2,2_2*%
%TO.N,Net-(D52-A)*%
X496340000Y68080000D03*
%TD*%
D11*
%TO.P,D19,1,K_1*%
%TO.N,/ROW1*%
X593920000Y97960000D03*
D12*
%TO.P,D19,2,A_2*%
%TO.N,Net-(D25-A)*%
X593920000Y105580000D03*
%TD*%
D10*
%TO.P,SW79,1,1_1*%
%TO.N,/COL0*%
X365990000Y28040000D03*
%TO.P,SW79,2,2_2*%
%TO.N,Net-(D33-A)*%
X372340000Y30580000D03*
%TD*%
D11*
%TO.P,D53,1,K_1*%
%TO.N,/ROW4*%
X370300000Y59880000D03*
D12*
%TO.P,D53,2,A_2*%
%TO.N,Net-(D65-A)*%
X370300000Y67500000D03*
%TD*%
D10*
%TO.P,SW57,1,1_1*%
%TO.N,/COL3*%
X337990000Y65540000D03*
%TO.P,SW57,2,2_2*%
%TO.N,Net-(D51-A)*%
X344340000Y68080000D03*
%TD*%
D11*
%TO.P,D35,1,K_1*%
%TO.N,/ROW0*%
X554920000Y80460000D03*
D12*
%TO.P,D35,2,A_2*%
%TO.N,Net-(D10-A)*%
X554920000Y88080000D03*
%TD*%
D11*
%TO.P,D17,1,K_1*%
%TO.N,/ROW5*%
X574420000Y98960000D03*
D12*
%TO.P,D17,2,A_2*%
%TO.N,Net-(D78-A)*%
X574420000Y106580000D03*
%TD*%
D10*
%TO.P,SW13,1,1_1*%
%TO.N,/COL1*%
X319300000Y122580000D03*
%TO.P,SW13,2,2_2*%
%TO.N,Net-(D34-A)*%
X325650000Y125120000D03*
%TD*%
%TO.P,SW80,1,1_1*%
%TO.N,/COL15*%
X490490000Y27540000D03*
%TO.P,SW80,2,2_2*%
%TO.N,Net-(D87-A)*%
X496840000Y30080000D03*
%TD*%
D11*
%TO.P,D20,1,K_1*%
%TO.N,/ROW1*%
X483800000Y97880000D03*
D12*
%TO.P,D20,2,A_2*%
%TO.N,Net-(D24-A)*%
X483800000Y105500000D03*
%TD*%
D11*
%TO.P,D55,1,K_1*%
%TO.N,/ROW5*%
X484300000Y59380000D03*
D12*
%TO.P,D55,2,A_2*%
%TO.N,Net-(D84-A)*%
X484300000Y67000000D03*
%TD*%
D11*
%TO.P,D27,1,K_1*%
%TO.N,/ROW1*%
X294300000Y97690000D03*
D12*
%TO.P,D27,2,A_2*%
%TO.N,Net-(D22-A)*%
X294300000Y105310000D03*
%TD*%
D10*
%TO.P,SW22,1,1_1*%
%TO.N,/COL10*%
X451950000Y103460000D03*
%TO.P,SW22,2,2_2*%
%TO.N,Net-(D26-A)*%
X458300000Y106000000D03*
%TD*%
%TO.P,SW8,1,1_1*%
%TO.N,/COL1*%
X414490000Y122660000D03*
%TO.P,SW8,2,2_2*%
%TO.N,Net-(D2-A)*%
X420840000Y125200000D03*
%TD*%
D11*
%TO.P,D82,1,K_1*%
%TO.N,/ROW3*%
X446800000Y22190000D03*
D12*
%TO.P,D82,2,A_2*%
%TO.N,Net-(D53-A)*%
X446800000Y29810000D03*
%TD*%
D10*
%TO.P,SW37,1,1_1*%
%TO.N,/COL7*%
X470990000Y84540000D03*
%TO.P,SW37,2,2_2*%
%TO.N,Net-(D39-A)*%
X477340000Y87080000D03*
%TD*%
D11*
%TO.P,D33,1,K_1*%
%TO.N,/ROW2*%
X593920000Y80460000D03*
D12*
%TO.P,D33,2,A_2*%
%TO.N,Net-(D46-A)*%
X593920000Y88080000D03*
%TD*%
D10*
%TO.P,SW28,1,1_1*%
%TO.N,/COL15*%
X338070000Y103540000D03*
%TO.P,SW28,2,2_2*%
%TO.N,Net-(D47-A)*%
X344420000Y106080000D03*
%TD*%
D11*
%TO.P,D88,1,K_1*%
%TO.N,/ROW4*%
X342300000Y20380000D03*
D12*
%TO.P,D88,2,A_2*%
%TO.N,Net-(D70-A)*%
X342300000Y28000000D03*
%TD*%
D10*
%TO.P,SW75,1,1_1*%
%TO.N,/COL1*%
X261990000Y46540000D03*
%TO.P,SW75,2,2_2*%
%TO.N,Net-(D63-A)*%
X268340000Y49080000D03*
%TD*%
%TO.P,SW64,1,1_1*%
%TO.N,/COL10*%
X471990000Y46540000D03*
%TO.P,SW64,2,2_2*%
%TO.N,Net-(D10-A)*%
X478340000Y49080000D03*
%TD*%
%TO.P,SW35,1,1_1*%
%TO.N,/COL13*%
X542030000Y86120000D03*
%TO.P,SW35,2,2_2*%
%TO.N,Net-(D61-A)*%
X548380000Y88660000D03*
%TD*%
%TO.P,SW85,1,1_1*%
%TO.N,/COL0*%
X300150000Y27540000D03*
%TO.P,SW85,2,2_2*%
%TO.N,Net-(D76-A)*%
X306500000Y30080000D03*
%TD*%
D11*
%TO.P,D48,1,K_1*%
%TO.N,/ROW4*%
X483800000Y77880000D03*
D12*
%TO.P,D48,2,A_2*%
%TO.N,Net-(D63-A)*%
X483800000Y85500000D03*
%TD*%
D11*
%TO.P,D62,1,K_1*%
%TO.N,/ROW5*%
X574420000Y42770000D03*
D12*
%TO.P,D62,2,A_2*%
%TO.N,Net-(D87-A)*%
X574420000Y50390000D03*
%TD*%
D10*
%TO.P,SW74,1,1_1*%
%TO.N,/COL13*%
X280990000Y46540000D03*
%TO.P,SW74,2,2_2*%
%TO.N,Net-(D74-A)*%
X287340000Y49080000D03*
%TD*%
%TO.P,SW3,1,1_1*%
%TO.N,/COL9*%
X542610000Y124120000D03*
%TO.P,SW3,2,2_2*%
%TO.N,Net-(D57-A)*%
X548960000Y126660000D03*
%TD*%
D11*
%TO.P,D11,1,K_1*%
%TO.N,/ROW1*%
X294300000Y116690000D03*
D12*
%TO.P,D11,2,A_2*%
%TO.N,Net-(D19-A)*%
X294300000Y124310000D03*
%TD*%
D11*
%TO.P,D73,1,K_1*%
%TO.N,/ROW4*%
X504300000Y39880000D03*
D12*
%TO.P,D73,2,A_2*%
%TO.N,Net-(D69-A)*%
X504300000Y47500000D03*
%TD*%
D10*
%TO.P,SW26,1,1_1*%
%TO.N,/COL8*%
X376070000Y103540000D03*
%TO.P,SW26,2,2_2*%
%TO.N,Net-(D69-A)*%
X382420000Y106080000D03*
%TD*%
D11*
%TO.P,D30,1,K_1*%
%TO.N,/ROW3*%
X427300000Y96880000D03*
D12*
%TO.P,D30,2,A_2*%
%TO.N,Net-(D59-A)*%
X427300000Y104500000D03*
%TD*%
D10*
%TO.P,SW82,1,1_1*%
%TO.N,/COL1*%
X452490000Y27540000D03*
%TO.P,SW82,2,2_2*%
%TO.N,Net-(D77-A)*%
X458840000Y30080000D03*
%TD*%
%TO.P,SW81,1,1_1*%
%TO.N,/COL16*%
X471490000Y27540000D03*
%TO.P,SW81,2,2_2*%
%TO.N,Net-(D88-A)*%
X477840000Y30080000D03*
%TD*%
D16*
%TO.N,/ROW5*%
X475500000Y71300000D03*
X574300000Y78800000D03*
X474400000Y72400000D03*
X502500000Y84000000D03*
X349400000Y49300000D03*
X568200000Y104600000D03*
X502500000Y90100000D03*
X570900000Y94400000D03*
X425200000Y45400000D03*
X488600000Y70600000D03*
X404000000Y54300000D03*
X573600000Y28300000D03*
X431200000Y89500000D03*
X555800000Y115400000D03*
X422900000Y79400001D03*
X424000000Y80500000D03*
X464400000Y86000000D03*
X489700000Y69500000D03*
X463800000Y89500000D03*
X397300000Y66800000D03*
X506900000Y105100000D03*
X376800000Y50000000D03*
X387200000Y59400000D03*
X448500000Y95200000D03*
X425200000Y50200000D03*
X562000000Y109200000D03*
X375700000Y48900000D03*
X405100000Y53200000D03*
X406200000Y75700000D03*
X566600000Y104600000D03*
X430900000Y87300000D03*
X345200000Y45100000D03*
X494500000Y69600000D03*
X497200000Y72700000D03*
X506500000Y109000000D03*
X573600000Y34700000D03*
%TO.N,/COL1*%
X500500000Y109200000D03*
X292000000Y85800000D03*
X272000000Y56200000D03*
X509500000Y103600000D03*
X310000000Y103000000D03*
X385900000Y126100000D03*
X481700000Y57900000D03*
X486400000Y76300000D03*
X481700000Y55100000D03*
X381900000Y123500000D03*
X401100000Y123400000D03*
X452500000Y32500000D03*
X402600000Y122700000D03*
X274800000Y56200000D03*
X312400000Y109100000D03*
X293100000Y86900000D03*
X462500000Y109400000D03*
X429000000Y109400000D03*
X491400000Y89500000D03*
X498200000Y111500000D03*
X490000000Y79900001D03*
X319300000Y118500000D03*
X427600000Y108600000D03*
X319300000Y116900000D03*
X461100000Y108600000D03*
%TO.N,Net-(D18-A)*%
X295300000Y39100000D03*
X296400000Y38000000D03*
%TO.N,/ROW0*%
X323500000Y73300000D03*
X467600000Y104500000D03*
X557000000Y81100000D03*
X366000000Y99500000D03*
X344900000Y46600000D03*
X387200000Y85700000D03*
X484000000Y79800000D03*
X517900000Y59900000D03*
X440500000Y123300000D03*
X471300000Y91400000D03*
X405100000Y67800000D03*
X296400000Y45300000D03*
X508600000Y128800000D03*
X469000000Y110200000D03*
X472700000Y87300000D03*
X572600000Y91500000D03*
X319200000Y56000000D03*
X274100000Y114100000D03*
X276800000Y94500000D03*
X326100000Y54700000D03*
X278100000Y26400000D03*
X591800000Y117000000D03*
X292600000Y41500000D03*
X276300000Y30600000D03*
X405100000Y65600000D03*
X441600000Y124400000D03*
X452500000Y119200000D03*
X343300000Y48200000D03*
X274000000Y104300000D03*
X391600000Y81300000D03*
X453600000Y120300000D03*
X469700000Y118300000D03*
X589900000Y108500000D03*
X430100000Y89500000D03*
X353400000Y90400000D03*
X337500000Y86400000D03*
X568100000Y87000000D03*
X351700000Y88700000D03*
X278100000Y28000000D03*
X274000000Y102700000D03*
X482900000Y80900001D03*
X428700000Y104600000D03*
X589900000Y110100000D03*
X317700000Y67500000D03*
X430100000Y82900000D03*
X317400000Y55600000D03*
X520000000Y57800000D03*
X507500000Y55800000D03*
X428700000Y108600000D03*
X336300000Y85100000D03*
%TO.N,/COL12*%
X372300000Y68800000D03*
X354000000Y87500000D03*
X436400000Y66400000D03*
X448300000Y78700000D03*
X410600000Y58700000D03*
X388800000Y65500000D03*
X359000000Y79200000D03*
X311500000Y106900000D03*
X367300000Y71000000D03*
X366200000Y72100000D03*
X345000000Y95500000D03*
X408700000Y59000000D03*
X436400000Y68900000D03*
X448300000Y80300000D03*
X343900000Y96600000D03*
X314700000Y105500000D03*
X378400000Y65500000D03*
X387200000Y65500000D03*
%TO.N,/COL13*%
X338300000Y128800000D03*
X402000000Y129000000D03*
X426700000Y123400000D03*
X403200000Y126000000D03*
%TO.N,/COL5*%
X473600000Y30300000D03*
X475800000Y32500000D03*
X396900000Y43200000D03*
X408600000Y27600000D03*
X406200000Y36100000D03*
%TO.N,/ROW2*%
X415400000Y19900000D03*
X303400000Y98300000D03*
X439200000Y23300000D03*
X453600000Y32500000D03*
X435000000Y22700000D03*
X311800000Y109700000D03*
X286600000Y91200000D03*
X304700000Y97400000D03*
X486200000Y21100000D03*
X486200000Y19500000D03*
X309600000Y102200000D03*
X310700000Y22500000D03*
X326300000Y23600000D03*
X328900000Y21000000D03*
X284700000Y29200000D03*
X450200000Y30300000D03*
X438400000Y19100000D03*
X419900000Y22700000D03*
X309600000Y21400000D03*
X290200000Y92500000D03*
X279800000Y34100000D03*
%TO.N,/ROW3*%
X304800000Y27600000D03*
X389200000Y91500000D03*
X299000000Y80600000D03*
X344500000Y122000000D03*
X329200000Y94400000D03*
X294100000Y64300000D03*
X413000000Y27300000D03*
X558800000Y88400000D03*
X398200000Y33300000D03*
X558000000Y93400000D03*
X328100000Y93300000D03*
X557000000Y113100000D03*
X388000000Y44800000D03*
X334700000Y109100000D03*
X561500000Y108600000D03*
X297000000Y38500000D03*
X388000000Y46400000D03*
X557100000Y34700000D03*
X293600000Y61100000D03*
X304800000Y30600000D03*
X474400000Y30000000D03*
X416700000Y89500000D03*
X503600000Y23300000D03*
X413000000Y31400000D03*
X493400000Y33100000D03*
X315600000Y86200000D03*
X347100000Y124600000D03*
X317200000Y86200000D03*
X375600000Y107500000D03*
X415600000Y88400000D03*
X493400000Y30900000D03*
X391000000Y85400000D03*
X505199999Y21700000D03*
X391000000Y89400000D03*
X371400000Y111700000D03*
X476900000Y32500000D03*
%TO.N,/ROW4*%
X479800000Y28600000D03*
X315900000Y38300000D03*
X460800000Y21700000D03*
X577000000Y33900000D03*
X342300000Y18300000D03*
X335400000Y26900000D03*
X575400000Y33900000D03*
X342300000Y22600000D03*
X490100000Y30900000D03*
X478200000Y27000000D03*
X457400000Y18300000D03*
X495300000Y33100000D03*
X333600000Y34600000D03*
%TO.N,Net-(D84-A)*%
X417900000Y67700000D03*
X419000000Y66600000D03*
%TO.N,Net-(D67-A)*%
X371600000Y109700000D03*
X371600000Y104400000D03*
%TO.N,/COL6*%
X292200000Y62100000D03*
X315500000Y81700000D03*
X293300000Y63200000D03*
X275700000Y30000000D03*
X308100000Y71500000D03*
X307000000Y70400000D03*
X276800000Y28900000D03*
%TO.N,Net-(D70-A)*%
X494200000Y33100000D03*
X494200000Y29200000D03*
X558800000Y93400000D03*
X558800000Y89500000D03*
%TO.N,/COL7*%
X560800000Y113100000D03*
X445400000Y64800000D03*
X560600000Y119300000D03*
X450400000Y70500000D03*
X508800000Y85100000D03*
X528300000Y91200000D03*
X464500000Y83400000D03*
X533400000Y95200000D03*
X481800000Y80900001D03*
X490800000Y80700000D03*
X560800000Y111500000D03*
X463400000Y82300000D03*
X408700000Y30900000D03*
X415000000Y37200000D03*
%TO.N,Net-(D16-A)*%
X287300000Y72900000D03*
X288400000Y71800000D03*
%TO.N,/ROW1*%
X374200000Y85200000D03*
X373100000Y21600000D03*
X295700000Y104800000D03*
X295900000Y115100000D03*
X373100000Y24400000D03*
X502400000Y21700000D03*
X279000000Y36100000D03*
X341400000Y66700000D03*
X503600000Y24400000D03*
X387700000Y109700000D03*
X354900000Y79900001D03*
X348400000Y49500000D03*
X375300000Y86300000D03*
X528100000Y33700000D03*
X345900000Y52000000D03*
X576500000Y82100000D03*
X591800000Y98000000D03*
X341400000Y68300000D03*
X555100000Y62300000D03*
X288300000Y91700000D03*
X370700000Y33000000D03*
X556700000Y62300000D03*
X287200000Y90600000D03*
X279200000Y26900000D03*
X381100000Y88700000D03*
X389100000Y101600000D03*
X528100000Y29400000D03*
X484800000Y19500000D03*
X370700000Y31400000D03*
%TO.N,Net-(D20-A)*%
X390600000Y109700000D03*
X390600000Y102500000D03*
%TO.N,Net-(D37-A)*%
X327300000Y126000000D03*
X471200000Y107400000D03*
X328900000Y127600000D03*
X469800000Y110200000D03*
%TO.N,Net-(D47-A)*%
X354600000Y88100000D03*
X356200000Y86400000D03*
X352700000Y102900000D03*
X352700000Y104500000D03*
%TO.N,Net-(D7-A)*%
X273300000Y117100000D03*
X272200000Y116000000D03*
%TO.N,Net-(D12-A)*%
X332700000Y108500000D03*
X388400000Y87900000D03*
X330500000Y108500000D03*
X366800000Y109700000D03*
X388400000Y90100000D03*
X369000000Y107500000D03*
X410000000Y69700000D03*
%TO.N,/COL8*%
X353200000Y82300000D03*
X402700000Y85000000D03*
X388500000Y103300000D03*
X559900000Y93400000D03*
X438500000Y123900000D03*
X352100000Y83400000D03*
X391400000Y101400000D03*
X442800000Y124300000D03*
X402900000Y90300000D03*
X367700000Y91700000D03*
X468200000Y106800000D03*
X550300000Y89500000D03*
X559600000Y91200000D03*
X378700000Y107500000D03*
X323000000Y65600000D03*
X411200000Y65300000D03*
X480800000Y91700000D03*
X464800000Y110200000D03*
X378700000Y109700000D03*
X534000000Y82000000D03*
X485200000Y87300000D03*
X550300000Y91100000D03*
X532900000Y83100000D03*
X357300000Y125700000D03*
X411200000Y68100000D03*
%TO.N,Net-(D24-A)*%
X483800000Y110200000D03*
%TO.N,Net-(D3-A)*%
X327700000Y128600000D03*
X329600000Y128300000D03*
X272800000Y117700000D03*
X271400000Y114100000D03*
%TO.N,/COL4*%
X352200000Y46600000D03*
X406200000Y53200000D03*
X338400000Y30200000D03*
X430900000Y51300000D03*
X505600000Y89500000D03*
X349000000Y43400000D03*
X452500000Y61800000D03*
X450100000Y61600000D03*
X485100000Y61900000D03*
X338400000Y34600000D03*
X496600000Y73300000D03*
X433300000Y51500000D03*
X402900000Y53200000D03*
X494500000Y68500000D03*
X502500000Y82900000D03*
X482200000Y61900000D03*
%TO.N,Net-(D13-A)*%
X466400000Y106800000D03*
X465200000Y108600000D03*
X480200000Y91200000D03*
X484500000Y86900000D03*
%TO.N,Net-(D76-A)*%
X351300000Y102900000D03*
X327000000Y67200000D03*
X325400000Y63000000D03*
%TO.N,Net-(D39-A)*%
X494700000Y106900000D03*
X496300000Y108500000D03*
%TO.N,/COL11*%
X542300000Y80100000D03*
X577700000Y86100000D03*
X571100000Y86200000D03*
X540200000Y82200000D03*
X562200000Y66700000D03*
X561100000Y67800000D03*
X539800000Y87000000D03*
X570000000Y85100000D03*
X532400000Y80400001D03*
X555400000Y82300000D03*
X559200000Y82300000D03*
X539800000Y93400000D03*
%TO.N,/COL14*%
X527000000Y96000000D03*
X507400000Y106800000D03*
X500000000Y112300000D03*
%TO.N,/COL0*%
X352600000Y81100000D03*
X345900000Y50900000D03*
X327400000Y54500000D03*
X334900000Y87600000D03*
X357000000Y68000000D03*
X315600000Y98500000D03*
X304600000Y32000000D03*
X284300000Y105000000D03*
X311500000Y40700000D03*
X285400000Y103900000D03*
X366000000Y33000000D03*
X324400000Y51500000D03*
X311500000Y42300000D03*
X317200000Y98500000D03*
X347800000Y49000000D03*
X336000000Y86500000D03*
X350100000Y83600000D03*
%TO.N,Net-(D49-A)*%
X322500000Y69700000D03*
X324800000Y72000000D03*
X311100000Y66200000D03*
X311100000Y68500000D03*
X296400000Y50600000D03*
%TO.N,/COL9*%
X544900000Y116600000D03*
X528300000Y86100000D03*
X549500000Y91200000D03*
X490900000Y74000000D03*
X489200000Y72300000D03*
X476700000Y71200000D03*
X510400000Y79100000D03*
X549500000Y93400000D03*
X553600000Y113100000D03*
X534400000Y91100000D03*
X544900000Y119500000D03*
%TO.N,Net-(D25-A)*%
X331500000Y107500000D03*
X333900000Y107500000D03*
X591800000Y105600000D03*
X564000000Y111200000D03*
X501600000Y111500000D03*
X562900000Y112300000D03*
X500000000Y111500000D03*
%TO.N,Net-(D11-A)*%
X318900000Y55200000D03*
X335200000Y34600000D03*
X323000000Y47900000D03*
%TO.N,/COL3*%
X323200000Y69100000D03*
X327100000Y69700000D03*
X280600000Y98300000D03*
X279500000Y99400000D03*
X334800000Y68300000D03*
%TO.N,Net-(D32-A)*%
X443100000Y34900000D03*
X444600000Y33400000D03*
X415900000Y34100000D03*
X417500000Y34700000D03*
X384400000Y33300000D03*
X385500000Y32200000D03*
%TO.N,Net-(D33-A)*%
X417000000Y33000000D03*
X418100000Y34100000D03*
%TO.N,Net-(D9-A)*%
X397500000Y86200000D03*
X390000000Y84400000D03*
%TO.N,Net-(D28-A)*%
X570500000Y90900000D03*
X569400000Y92000000D03*
%TO.N,Net-(D41-A)*%
X459500000Y77300000D03*
X432900000Y87900000D03*
X409400000Y101900000D03*
X472600000Y70600000D03*
X473700000Y69500000D03*
X457200000Y79600000D03*
X437000000Y84600000D03*
%TO.N,Net-(D54-A)*%
X337300000Y30200000D03*
X557100000Y26000000D03*
X557100000Y23800000D03*
X338400000Y29100000D03*
%TO.N,Net-(D50-A)*%
X490600000Y87300000D03*
X459900000Y67200000D03*
X392400000Y46400000D03*
X402300000Y52600000D03*
X458300000Y65600000D03*
X486700000Y83600000D03*
X430700000Y48900000D03*
X429100000Y49500000D03*
X403400000Y51500000D03*
%TO.N,Net-(D75-A)*%
X543200000Y89500000D03*
X465000000Y56100000D03*
X543200000Y93400000D03*
X463900000Y55000000D03*
X566900000Y115200000D03*
X565800000Y114100000D03*
%TO.N,/COL16*%
X489500000Y22800000D03*
X487900000Y24400000D03*
X562800000Y26100000D03*
X474600000Y27500000D03*
%TO.N,Net-(D48-A)*%
X464600000Y87300000D03*
X479700000Y90600000D03*
X464600000Y89500000D03*
X480800000Y89500000D03*
X446300000Y70500000D03*
%TO.N,Net-(D65-A)*%
X326100000Y55500000D03*
X324500000Y55500000D03*
X317000000Y48000000D03*
X316700000Y46400000D03*
%TO.N,/COL10*%
X450400000Y42200000D03*
X377600000Y70900000D03*
X375999999Y72500000D03*
X529700000Y78500000D03*
X377400000Y81100000D03*
X416900000Y35300000D03*
X365100000Y95300000D03*
X451900000Y40700000D03*
X415100000Y34900000D03*
X362200000Y98200000D03*
X392200000Y81800000D03*
X388600000Y34500000D03*
X390000000Y80500000D03*
X387100000Y36000000D03*
X376800000Y48900000D03*
%TO.N,Net-(D19-A)*%
X389200000Y90100000D03*
X424200000Y79200000D03*
X368400000Y110300000D03*
X370100000Y107500000D03*
X427200000Y76200000D03*
X437500000Y70800000D03*
X390200000Y87900000D03*
%TO.N,Net-(D59-A)*%
X540400000Y106800000D03*
X542600000Y106800000D03*
%TO.N,Net-(D83-A)*%
X437700000Y87900000D03*
X571300000Y91700000D03*
X480000000Y88700000D03*
X412200000Y65900000D03*
X441900000Y88700000D03*
X570200000Y92800000D03*
X478900000Y89800000D03*
X415000000Y68900000D03*
%TO.N,Net-(D26-A)*%
X384000000Y97600000D03*
X354500000Y85800000D03*
X379600000Y93200000D03*
%TO.N,Net-(D52-A)*%
X380200000Y30500000D03*
X441500000Y48000000D03*
X414500000Y35500000D03*
X386900000Y33100000D03*
X464600000Y54300000D03*
X439900000Y46400000D03*
X415600000Y36600000D03*
X467600000Y57300000D03*
%TO.N,Net-(D66-A)*%
X462800000Y56900000D03*
X463900000Y58000000D03*
%TO.N,Net-(D62-A)*%
X385200000Y85400000D03*
%TO.N,Net-(D78-A)*%
X483400000Y125100000D03*
X485400000Y124900000D03*
X401700000Y128200000D03*
X501199999Y125600000D03*
X503400000Y125600000D03*
%TO.N,Net-(D80-A)*%
X401400000Y103600000D03*
%TO.N,Net-(D85-A)*%
X314300000Y46400000D03*
X326000000Y46600000D03*
%TD*%
%TO.N,/ROW5*%
D17*
X424000000Y80500000D02*
X422900000Y79400001D01*
X573600000Y91700000D02*
X573600000Y79500000D01*
X349400000Y49300000D02*
X345200000Y45100000D01*
X431200000Y89500000D02*
X430900000Y89200000D01*
X573600000Y34700000D02*
X573600000Y28300000D01*
X566600000Y104600000D02*
X568200000Y104600000D01*
X506500000Y108800000D02*
X508199999Y107100000D01*
X489700000Y69500000D02*
X488600000Y70600000D01*
X497200000Y72700000D02*
X497200000Y72300000D01*
X463800000Y86600000D02*
X463800000Y89500000D01*
X508199999Y106400000D02*
X506900000Y105100000D01*
X506500000Y109000000D02*
X506500000Y108800000D01*
X425200000Y50200000D02*
X425200000Y45400000D01*
X446800000Y96900000D02*
X446800000Y96880000D01*
X431200000Y89500000D02*
X430900000Y89200000D01*
X406200000Y75700000D02*
X397300000Y66800000D01*
X389300000Y59400000D02*
X387200000Y59400000D01*
X570900000Y94400000D02*
X573600000Y91700000D01*
X555800000Y115400000D02*
X562000000Y109200000D01*
X376800000Y50000000D02*
X375700000Y48900000D01*
X475500000Y71300000D02*
X474400000Y72400000D01*
X389300000Y59380000D02*
X389300000Y59400000D01*
X464400000Y86000000D02*
X463800000Y86600000D01*
X448500000Y95200000D02*
X446800000Y96900000D01*
X497200000Y72300000D02*
X494500000Y69600000D01*
X573600000Y79500000D02*
X574300000Y78800000D01*
X404000000Y54300000D02*
X405100000Y53200000D01*
X506500000Y109000000D02*
X506500000Y108800000D01*
X508199999Y107100000D02*
X508199999Y106400000D01*
X497200000Y72700000D02*
X497200000Y72300000D01*
X430900000Y89200000D02*
X430900000Y87300000D01*
X502500000Y90100000D02*
X502500000Y84000000D01*
%TO.N,/COL1*%
X319300000Y118500000D02*
X319300000Y116900000D01*
X509500000Y103600000D02*
X511900000Y106000000D01*
X461100000Y108600000D02*
X461700000Y108600000D01*
X312400000Y109100000D02*
X310000000Y106700000D01*
X274800000Y56200000D02*
X272000000Y56200000D01*
X427600000Y108600000D02*
X428400000Y109400000D01*
X481700000Y57900000D02*
X481700000Y55100000D01*
X498200000Y111500000D02*
X500500000Y109200000D01*
X461700000Y108600000D02*
X462500000Y109400000D01*
X401900000Y123400000D02*
X402600000Y122700000D01*
X490000000Y79900001D02*
X486400000Y76300000D01*
X491400000Y85900000D02*
X490000000Y84500000D01*
X428400000Y109400000D02*
X429000000Y109400000D01*
X452500000Y32500000D02*
X452500000Y27500000D01*
X381900000Y123500000D02*
X383300000Y123500000D01*
X491400000Y89500000D02*
X491400000Y85900000D01*
X310000000Y106700000D02*
X310000000Y103000000D01*
X293100000Y86900000D02*
X292000000Y85800000D01*
X401100000Y123400000D02*
X401900000Y123400000D01*
X383300000Y123500000D02*
X385900000Y126100000D01*
%TO.N,Net-(D18-A)*%
X296400000Y38000000D02*
X295300000Y39100000D01*
%TO.N,/ROW0*%
X452500000Y119200000D02*
X453600000Y120300000D01*
X336700000Y85500000D02*
X336700000Y85600000D01*
X336300000Y85100000D02*
X336700000Y85500000D01*
X278100000Y28000000D02*
X278100000Y26400000D01*
X274100000Y114100000D02*
X275300000Y115300000D01*
X467800000Y116400000D02*
X469700000Y118300000D01*
X471300000Y91400000D02*
X472700000Y90000000D01*
X278100000Y28000000D02*
X278100000Y28800000D01*
X428700000Y104600000D02*
X428700000Y108600000D01*
X440500000Y123300000D02*
X441600000Y124400000D01*
X387200000Y85700000D02*
X391600000Y81300000D01*
X317400000Y55600000D02*
X318200000Y55600000D01*
X274000000Y102700000D02*
X274000000Y104300000D01*
X370300000Y97400000D02*
X370300000Y97380000D01*
X322900000Y56000000D02*
X324200000Y54700000D01*
X368200000Y99500000D02*
X370300000Y97400000D01*
X465800000Y116380000D02*
X465800000Y116400000D01*
X592900000Y117000000D02*
X593900000Y118000000D01*
X296400000Y45300000D02*
X292600000Y41500000D01*
X589900000Y108500000D02*
X589900000Y110100000D01*
X555500000Y81100000D02*
X557000000Y81100000D01*
X517900000Y59900000D02*
X520000000Y57800000D01*
X318200000Y55600000D02*
X318600000Y56000000D01*
X472700000Y90000000D02*
X472700000Y87300000D01*
X503300000Y59900000D02*
X503400000Y59900000D01*
X508600000Y128800000D02*
X511900000Y128800000D01*
X593900000Y118000000D02*
X593920000Y117960000D01*
X503300000Y59880000D02*
X503300000Y59900000D01*
X469000000Y110200000D02*
X469000000Y105900000D01*
X343300000Y48200000D02*
X344900000Y46600000D01*
X465800000Y116400000D02*
X467800000Y116400000D01*
X336700000Y85600000D02*
X337500000Y86400000D01*
X482900000Y80900001D02*
X484000000Y79800000D01*
X405100000Y67800000D02*
X405100000Y65600000D01*
X275300000Y96000000D02*
X275300000Y97400000D01*
X276800000Y94500000D02*
X275300000Y96000000D01*
X469000000Y105900000D02*
X467600000Y104500000D01*
X554920000Y80460000D02*
X554900000Y80500000D01*
X278100000Y28800000D02*
X276300000Y30600000D01*
X554900000Y80500000D02*
X555500000Y81100000D01*
X351700000Y88700000D02*
X353400000Y90400000D01*
X503400000Y59900000D02*
X507500000Y55800000D01*
X511900000Y128800000D02*
X511910000Y128817000D01*
X317700000Y67500000D02*
X323500000Y73300000D01*
X275300000Y115300000D02*
X275300000Y116700000D01*
X430100000Y82900000D02*
X430100000Y89500000D01*
X324200000Y54700000D02*
X326100000Y54700000D01*
X568100000Y87000000D02*
X572600000Y91500000D01*
X591800000Y117000000D02*
X592900000Y117000000D01*
X318600000Y56000000D02*
X322900000Y56000000D01*
X275300000Y97400000D02*
X275300000Y97380000D01*
X366000000Y99500000D02*
X368200000Y99500000D01*
%TO.N,/COL12*%
X410600000Y58700000D02*
X410300000Y59000000D01*
X448300000Y78700000D02*
X448300000Y80300000D01*
X372300000Y68800000D02*
X372700000Y68800000D01*
X366200000Y72100000D02*
X367300000Y71000000D01*
X372300000Y68800000D02*
X372700000Y68800000D01*
X356990000Y84540000D02*
X357000000Y84500000D01*
X408700000Y59000000D02*
X410300000Y59000000D01*
X436400000Y66400000D02*
X436400000Y68900000D01*
X387200000Y65500000D02*
X388800000Y65500000D01*
X357000000Y84500000D02*
X354000000Y87500000D01*
X311800000Y106600000D02*
X311500000Y106900000D01*
X375999999Y65500000D02*
X375990000Y65540000D01*
X356990000Y84540000D02*
X357000000Y84500000D01*
X372700000Y68800000D02*
X375999999Y65500000D01*
X375999999Y65500000D02*
X378400000Y65500000D01*
X358300000Y79900001D02*
X359000000Y79200000D01*
X410300000Y59000000D02*
X410600000Y58700000D01*
X358300000Y83200000D02*
X358300000Y79900001D01*
X357000000Y84500000D02*
X358300000Y83200000D01*
X345000000Y95500000D02*
X343900000Y96600000D01*
X311500000Y106900000D02*
X311800000Y106600000D01*
X313600000Y106600000D02*
X311800000Y106600000D01*
X314700000Y105500000D02*
X313600000Y106600000D01*
%TO.N,/COL13*%
X338300000Y122600000D02*
X338300000Y122580000D01*
X433500000Y122500000D02*
X427600000Y122500000D01*
X433490000Y122540000D02*
X433500000Y122500000D01*
X338300000Y128800000D02*
X338300000Y122600000D01*
X402500000Y128500000D02*
X402000000Y129000000D01*
X403200000Y126000000D02*
X402500000Y126700000D01*
X427600000Y122500000D02*
X426700000Y123400000D01*
X402500000Y126700000D02*
X402500000Y128500000D01*
%TO.N,/COL5*%
X473600000Y30300000D02*
X475800000Y32500000D01*
X408600000Y27600000D02*
X408600000Y29900000D01*
X408600000Y29900000D02*
X406200000Y32300000D01*
X396900000Y43200000D02*
X396900000Y45400000D01*
X396900000Y45400000D02*
X395800000Y46500000D01*
X406200000Y32300000D02*
X406200000Y36100000D01*
%TO.N,/ROW2*%
X438400000Y22500000D02*
X439200000Y23300000D01*
X309600000Y102300000D02*
X309200000Y102700000D01*
X279800000Y34100000D02*
X284700000Y29200000D01*
X309200000Y107100000D02*
X311800000Y109700000D01*
X309200000Y102700000D02*
X309200000Y107100000D01*
X435000000Y22700000D02*
X435200000Y22500000D01*
X452800000Y33300000D02*
X453600000Y32500000D01*
X286600000Y91200000D02*
X287900000Y92500000D01*
X309600000Y21400000D02*
X310700000Y22500000D01*
X418100000Y22700000D02*
X419900000Y22700000D01*
X435000000Y22700000D02*
X435200000Y22500000D01*
X287900000Y92500000D02*
X290200000Y92500000D01*
X450200000Y31300000D02*
X452200000Y33300000D01*
X415400000Y19900000D02*
X417800000Y22300000D01*
X486200000Y19500000D02*
X486200000Y21100000D01*
X303400000Y98300000D02*
X303800000Y98300000D01*
X417800000Y22400000D02*
X417800000Y22380000D01*
X417800000Y22400000D02*
X418100000Y22700000D01*
X435200000Y22500000D02*
X438400000Y22500000D01*
X303400000Y98300000D02*
X303800000Y98300000D01*
X450200000Y30300000D02*
X450200000Y31300000D01*
X309600000Y102200000D02*
X309600000Y102300000D01*
X438400000Y22500000D02*
X438400000Y19100000D01*
X309600000Y102200000D02*
X309600000Y102300000D01*
X452200000Y33300000D02*
X452800000Y33300000D01*
X303800000Y98300000D02*
X304700000Y97400000D01*
X326300000Y23600000D02*
X328900000Y21000000D01*
X417800000Y22300000D02*
X417800000Y22400000D01*
%TO.N,/ROW3*%
X558800000Y88400000D02*
X558000000Y89200000D01*
X388000000Y44800000D02*
X388000000Y46400000D01*
X561500000Y108600000D02*
X557000000Y113100000D01*
X299000000Y80600000D02*
X296500000Y80600000D01*
X391000000Y85400000D02*
X391000000Y89400000D01*
X295600000Y39900000D02*
X297000000Y38500000D01*
X389200000Y91200000D02*
X389200000Y91500000D01*
X557100000Y29500000D02*
X557100000Y34700000D01*
X493400000Y30900000D02*
X493400000Y33100000D01*
X398200000Y33300000D02*
X391100000Y40400000D01*
X294300000Y40900000D02*
X295300000Y39900000D01*
X413000000Y27300000D02*
X413000000Y31400000D01*
X334700000Y99800000D02*
X332300000Y97400000D01*
X294100000Y64300000D02*
X294100000Y61600000D01*
X555800000Y22400000D02*
X555800000Y28200000D01*
X334700000Y109100000D02*
X334700000Y99800000D01*
X329200000Y94400000D02*
X328100000Y93300000D01*
X304800000Y30600000D02*
X304800000Y27600000D01*
X505199999Y21700000D02*
X503600000Y23300000D01*
X295300000Y39900000D02*
X295600000Y39900000D01*
X391000000Y89400000D02*
X389200000Y91200000D01*
X317200000Y86200000D02*
X315600000Y86200000D01*
X415600000Y88400000D02*
X416700000Y89500000D01*
X347100000Y124600000D02*
X344500000Y122000000D01*
X296500000Y80600000D02*
X294300000Y78400000D01*
X558000000Y89200000D02*
X558000000Y93400000D01*
X294100000Y61600000D02*
X293600000Y61100000D01*
X555800000Y28200000D02*
X557100000Y29500000D01*
X476900000Y32500000D02*
X474400000Y30000000D01*
X375600000Y107500000D02*
X371400000Y111700000D01*
%TO.N,/ROW4*%
X342300000Y18300000D02*
X342300000Y20400000D01*
X460800000Y21700000D02*
X457400000Y18300000D01*
X495300000Y33100000D02*
X494500000Y33900000D01*
X494500000Y33900000D02*
X493100000Y33900000D01*
X315900000Y38300000D02*
X313300000Y40900000D01*
X493100000Y33900000D02*
X490100000Y30900000D01*
X342300000Y20400000D02*
X342300000Y20380000D01*
X342300000Y20400000D02*
X342300000Y22600000D01*
X575400000Y33900000D02*
X577000000Y33900000D01*
X335400000Y26900000D02*
X333600000Y28700000D01*
X313300000Y40900000D02*
X313300000Y40880000D01*
X479800000Y28600000D02*
X478200000Y27000000D01*
X333600000Y28700000D02*
X333600000Y34600000D01*
%TO.N,Net-(D84-A)*%
X417900000Y67700000D02*
X419000000Y66600000D01*
%TO.N,Net-(D67-A)*%
X371600000Y104400000D02*
X371600000Y109700000D01*
%TO.N,/COL6*%
X276800000Y28900000D02*
X275700000Y30000000D01*
X317200000Y83400000D02*
X315500000Y81700000D01*
X319000000Y84500000D02*
X317900000Y83400000D01*
X318990000Y84540000D02*
X319000000Y84500000D01*
X317900000Y83400000D02*
X317200000Y83400000D01*
X293300000Y63200000D02*
X292200000Y62100000D01*
X308100000Y71500000D02*
X307000000Y70400000D01*
%TO.N,Net-(D70-A)*%
X558800000Y89500000D02*
X558800000Y93400000D01*
X494200000Y29200000D02*
X494200000Y33100000D01*
%TO.N,/COL7*%
X464500000Y83400000D02*
X463400000Y82300000D01*
X528300000Y91200000D02*
X529100000Y92000000D01*
X561700000Y123900000D02*
X561600000Y124000000D01*
X489900000Y80700000D02*
X490800000Y80700000D01*
X415000000Y37200000D02*
X408700000Y30900000D01*
X560600000Y119900000D02*
X561700000Y121000000D01*
X489800000Y80600000D02*
X489900000Y80700000D01*
X447600000Y67000000D02*
X445400000Y64800000D01*
X508800000Y85100000D02*
X511900000Y88200000D01*
X560600000Y119300000D02*
X560600000Y119900000D01*
X561600000Y124000000D02*
X561570000Y124040000D01*
X560800000Y111500000D02*
X560800000Y113100000D01*
X481800000Y80900001D02*
X482600000Y81700000D01*
X561700000Y121000000D02*
X561700000Y123900000D01*
X530200000Y92000000D02*
X533400000Y95200000D01*
X488200000Y80600000D02*
X489800000Y80600000D01*
X529100000Y92000000D02*
X530200000Y92000000D01*
X487100000Y81700000D02*
X488200000Y80600000D01*
X482600000Y81700000D02*
X487100000Y81700000D01*
X450400000Y70500000D02*
X447600000Y67700000D01*
X447600000Y67700000D02*
X447600000Y67000000D01*
X511900000Y88200000D02*
X511910000Y88178000D01*
%TO.N,Net-(D16-A)*%
X288400000Y71800000D02*
X287300000Y72900000D01*
%TO.N,/ROW1*%
X574900000Y80500000D02*
X576500000Y82100000D01*
X387700000Y103000000D02*
X387700000Y109700000D01*
X574920000Y80460000D02*
X574900000Y80500000D01*
X374200000Y85200000D02*
X375300000Y86300000D01*
X502800000Y23600000D02*
X503600000Y24400000D01*
X389100000Y101600000D02*
X387700000Y103000000D01*
X502800000Y22100000D02*
X502800000Y23600000D01*
X279200000Y33600000D02*
X279200000Y26900000D01*
X389300000Y96900000D02*
X389300000Y96880000D01*
X294300000Y103400000D02*
X295700000Y104800000D01*
X528100000Y29400000D02*
X528100000Y33700000D01*
X279000000Y33800000D02*
X279200000Y33600000D01*
X351300000Y78880000D02*
X351300000Y78900001D01*
X353900000Y78900001D02*
X354900000Y79900001D01*
X555100000Y62300000D02*
X556700000Y62300000D01*
X348400000Y49500000D02*
X345900000Y52000000D01*
X593900000Y98000000D02*
X593920000Y97960000D01*
X370700000Y31400000D02*
X370700000Y33000000D01*
X341400000Y66700000D02*
X341400000Y68300000D01*
X381100000Y88700000D02*
X389300000Y96900000D01*
X484800000Y21900000D02*
X484800000Y21880000D01*
X295900000Y115100000D02*
X294300000Y116700000D01*
X484800000Y19500000D02*
X484800000Y21900000D01*
X279000000Y36100000D02*
X279000000Y33800000D01*
X373100000Y21600000D02*
X373100000Y24400000D01*
X502400000Y21700000D02*
X502800000Y22100000D01*
X294300000Y97700000D02*
X294300000Y103400000D01*
X288300000Y91700000D02*
X287200000Y90600000D01*
X591800000Y98000000D02*
X593900000Y98000000D01*
X351300000Y78900001D02*
X353900000Y78900001D01*
%TO.N,Net-(D20-A)*%
X390600000Y102500000D02*
X390600000Y109700000D01*
%TO.N,Net-(D37-A)*%
X471200000Y107400000D02*
X469800000Y108800000D01*
X469800000Y108800000D02*
X469800000Y110200000D01*
X328900000Y127600000D02*
X327300000Y126000000D01*
%TO.N,Net-(D47-A)*%
X354600000Y88000000D02*
X356200000Y86400000D01*
X352700000Y104500000D02*
X352700000Y102900000D01*
%TO.N,Net-(D7-A)*%
X273300000Y117100000D02*
X272200000Y116000000D01*
%TO.N,Net-(D12-A)*%
X330500000Y108500000D02*
X332700000Y108500000D01*
X410000000Y69700000D02*
X408300000Y68000000D01*
X366800000Y109700000D02*
X369000000Y107500000D01*
X388400000Y90100000D02*
X388400000Y87900000D01*
%TO.N,/COL8*%
X353200000Y82300000D02*
X352100000Y83400000D01*
X402700000Y86300000D02*
X402700000Y85000000D01*
X376200000Y100200000D02*
X367700000Y91700000D01*
X440800000Y122500000D02*
X439900000Y122500000D01*
X378700000Y109700000D02*
X378700000Y106100000D01*
X559600000Y93100000D02*
X559900000Y93400000D01*
X442800000Y124300000D02*
X442600000Y124300000D01*
X468200000Y106800000D02*
X464800000Y110200000D01*
X532900000Y83100000D02*
X534000000Y82000000D01*
X357300000Y125700000D02*
X357300000Y122600000D01*
X485200000Y87300000D02*
X480800000Y91700000D01*
X411200000Y68100000D02*
X411200000Y65300000D01*
X323000000Y65600000D02*
X322900000Y65500000D01*
X402900000Y86500000D02*
X402700000Y86300000D01*
X442600000Y124300000D02*
X440800000Y122500000D01*
X439900000Y122500000D02*
X438500000Y123900000D01*
X390400000Y101400000D02*
X391400000Y101400000D01*
X376200000Y103400000D02*
X376200000Y100200000D01*
X322900000Y65500000D02*
X319000000Y65500000D01*
X550300000Y89500000D02*
X550300000Y91100000D01*
X388500000Y103300000D02*
X390400000Y101400000D01*
X378700000Y106100000D02*
X376100000Y103500000D01*
X402900000Y90300000D02*
X402900000Y86500000D01*
X559600000Y91200000D02*
X559600000Y93100000D01*
%TO.N,Net-(D24-A)*%
X483800000Y110200000D02*
X483800000Y105500000D01*
%TO.N,Net-(D3-A)*%
X329600000Y128300000D02*
X329300000Y128300000D01*
X272800000Y117700000D02*
X271400000Y116300000D01*
X329300000Y128300000D02*
X329000000Y128600000D01*
X329000000Y128600000D02*
X327700000Y128600000D01*
X271400000Y116300000D02*
X271400000Y114100000D01*
%TO.N,/COL4*%
X451100000Y61600000D02*
X451300000Y61800000D01*
X482200000Y61900000D02*
X485100000Y61900000D01*
X502500000Y82900000D02*
X505600000Y86000000D01*
X505600000Y86000000D02*
X505600000Y89500000D01*
X450100000Y61600000D02*
X451100000Y61600000D01*
X338400000Y30200000D02*
X338400000Y34600000D01*
X403700000Y52400000D02*
X405400000Y52400000D01*
X405400000Y52400000D02*
X406200000Y53200000D01*
X431100000Y51500000D02*
X433300000Y51500000D01*
X493700000Y70400000D02*
X496600000Y73300000D01*
X430900000Y51300000D02*
X431100000Y51500000D01*
X402900000Y53200000D02*
X403700000Y52400000D01*
X430900000Y51300000D02*
X431100000Y51500000D01*
X494500000Y68500000D02*
X493700000Y69300000D01*
X493700000Y69300000D02*
X493700000Y70400000D01*
X349000000Y43400000D02*
X352200000Y46600000D01*
X451300000Y61800000D02*
X452500000Y61800000D01*
%TO.N,Net-(D13-A)*%
X480200000Y91200000D02*
X484500000Y86900000D01*
X465200000Y108600000D02*
X465200000Y108000000D01*
X465200000Y108000000D02*
X466400000Y106800000D01*
%TO.N,Net-(D76-A)*%
X351300000Y105000000D02*
X351300000Y102900000D01*
X327000000Y64600000D02*
X325400000Y63000000D01*
X327000000Y67200000D02*
X327000000Y64600000D01*
%TO.N,Net-(D39-A)*%
X496300000Y108500000D02*
X494700000Y106900000D01*
%TO.N,/COL11*%
X580100000Y86100000D02*
X580110000Y86120000D01*
X532400000Y80400001D02*
X529700000Y83100000D01*
X577700000Y86100000D02*
X580100000Y86100000D01*
X570000000Y85100000D02*
X571100000Y86200000D01*
X529700000Y83100000D02*
X529690000Y83097000D01*
X559200000Y82300000D02*
X555400000Y82300000D01*
X562200000Y66700000D02*
X561100000Y67800000D01*
X539800000Y87000000D02*
X539800000Y93400000D01*
X542300000Y80100000D02*
X540200000Y82200000D01*
%TO.N,/COL14*%
X527000000Y96000000D02*
X529700000Y93300000D01*
X529700000Y93300000D02*
X529690000Y93258000D01*
X501900000Y112300000D02*
X507400000Y106800000D01*
X500000000Y112300000D02*
X501900000Y112300000D01*
%TO.N,/COL0*%
X345900000Y50900000D02*
X347800000Y49000000D01*
X350100000Y83600000D02*
X352600000Y81100000D01*
X304600000Y32000000D02*
X300100000Y27500000D01*
X285400000Y103900000D02*
X284300000Y105000000D01*
X311500000Y42300000D02*
X311500000Y40700000D01*
X327400000Y54500000D02*
X324400000Y51500000D01*
X366000000Y28000000D02*
X365990000Y28040000D01*
X357000000Y68000000D02*
X357000000Y65500000D01*
X317200000Y98500000D02*
X315600000Y98500000D01*
X300100000Y27500000D02*
X300150000Y27540000D01*
X336000000Y86500000D02*
X334900000Y87600000D01*
X366000000Y33000000D02*
X366000000Y28000000D01*
X357000000Y65500000D02*
X356990000Y65540000D01*
%TO.N,Net-(D49-A)*%
X296400000Y50600000D02*
X294300000Y48500000D01*
X324800000Y72000000D02*
X322500000Y69700000D01*
X311100000Y68500000D02*
X311100000Y66200000D01*
%TO.N,/COL9*%
X476700000Y71200000D02*
X471000000Y65500000D01*
X511910000Y80558001D02*
X511900000Y80600000D01*
X544900000Y116600000D02*
X544900000Y119500000D01*
X530200000Y86900000D02*
X534400000Y91100000D01*
X528300000Y86100000D02*
X528300000Y86500000D01*
X528300000Y86100000D02*
X528300000Y86500000D01*
X528700000Y86900000D02*
X530200000Y86900000D01*
X561100000Y105000000D02*
X561100000Y105600000D01*
X561100000Y105600000D02*
X553600000Y113100000D01*
X549500000Y91200000D02*
X549500000Y93400000D01*
X561070000Y105040000D02*
X561100000Y105000000D01*
X490900000Y74000000D02*
X489200000Y72300000D01*
X511900000Y80600000D02*
X510400000Y79100000D01*
X528300000Y86500000D02*
X528700000Y86900000D01*
X471000000Y65500000D02*
X470990000Y65540000D01*
%TO.N,Net-(D25-A)*%
X331500000Y107500000D02*
X333900000Y107500000D01*
X591800000Y105600000D02*
X593900000Y105600000D01*
X500000000Y111500000D02*
X501600000Y111500000D01*
X562900000Y112300000D02*
X564000000Y111200000D01*
%TO.N,Net-(D11-A)*%
X323000000Y47900000D02*
X321600000Y49300000D01*
X321600000Y52500000D02*
X318900000Y55200000D01*
X335200000Y29300000D02*
X335200000Y34600000D01*
X321600000Y49300000D02*
X321600000Y52500000D01*
%TO.N,/COL3*%
X324000000Y69100000D02*
X324600000Y69700000D01*
X324600000Y69700000D02*
X327100000Y69700000D01*
X279500000Y99400000D02*
X280600000Y98300000D01*
X334800000Y68300000D02*
X335200000Y68300000D01*
X338000000Y65500000D02*
X337990000Y65540000D01*
X334800000Y68300000D02*
X335200000Y68300000D01*
X323200000Y69100000D02*
X324000000Y69100000D01*
X335200000Y68300000D02*
X338000000Y65500000D01*
%TO.N,Net-(D32-A)*%
X384400000Y33300000D02*
X385500000Y32200000D01*
X416900000Y34100000D02*
X417500000Y34700000D01*
X443100000Y34900000D02*
X444600000Y33400000D01*
X415900000Y34100000D02*
X416900000Y34100000D01*
%TO.N,Net-(D33-A)*%
X418100000Y34100000D02*
X417000000Y33000000D01*
%TO.N,Net-(D9-A)*%
X392500000Y84400000D02*
X394300000Y86200000D01*
X394300000Y86200000D02*
X397500000Y86200000D01*
X390000000Y84400000D02*
X392500000Y84400000D01*
%TO.N,Net-(D28-A)*%
X569400000Y92000000D02*
X570500000Y90900000D01*
%TO.N,Net-(D41-A)*%
X409400000Y101900000D02*
X409400000Y102900000D01*
X437000000Y84600000D02*
X436200000Y84600000D01*
X473700000Y69500000D02*
X472600000Y70600000D01*
X409400000Y102900000D02*
X408300000Y104000000D01*
X436200000Y84600000D02*
X432900000Y87900000D01*
X459500000Y77300000D02*
X457200000Y79600000D01*
%TO.N,Net-(D54-A)*%
X337300000Y30200000D02*
X338400000Y29100000D01*
X557100000Y23800000D02*
X557100000Y26000000D01*
%TO.N,Net-(D50-A)*%
X429700000Y48900000D02*
X429100000Y49500000D01*
X459900000Y67200000D02*
X458300000Y65600000D01*
X490400000Y87300000D02*
X486700000Y83600000D01*
X490600000Y87300000D02*
X490400000Y87300000D01*
X392400000Y46400000D02*
X390800000Y48000000D01*
X430700000Y48900000D02*
X429700000Y48900000D01*
X403400000Y51500000D02*
X402300000Y52600000D01*
%TO.N,Net-(D75-A)*%
X565800000Y114100000D02*
X566900000Y115200000D01*
X543200000Y89500000D02*
X543200000Y93400000D01*
X463900000Y55000000D02*
X465000000Y56100000D01*
%TO.N,/COL16*%
X562800000Y27800000D02*
X561500000Y29100000D01*
X561500000Y29100000D02*
X561530000Y29120000D01*
X562800000Y26100000D02*
X562800000Y27800000D01*
X471490000Y27540000D02*
X471500000Y27500000D01*
X487900000Y24400000D02*
X489500000Y22800000D01*
X471500000Y27500000D02*
X474600000Y27500000D01*
%TO.N,Net-(D48-A)*%
X464600000Y89500000D02*
X464600000Y87300000D01*
X446300000Y70500000D02*
X446300000Y67500000D01*
X480800000Y89500000D02*
X479700000Y90600000D01*
%TO.N,Net-(D65-A)*%
X316700000Y46400000D02*
X317000000Y46700000D01*
X324500000Y55500000D02*
X326100000Y55500000D01*
X317000000Y46700000D02*
X317000000Y48000000D01*
%TO.N,/COL10*%
X415500000Y35300000D02*
X415100000Y34900000D01*
X375999999Y82900000D02*
X375999999Y84500000D01*
X377400000Y81100000D02*
X377400000Y81500000D01*
X392400000Y81000000D02*
X392400000Y81500000D01*
X376800000Y46500000D02*
X376800000Y48900000D01*
X392300000Y81700000D02*
X392200000Y81800000D01*
X529700000Y78500000D02*
X529700000Y80600000D01*
X377600000Y70900000D02*
X375999999Y72500000D01*
X416900000Y35300000D02*
X415500000Y35300000D01*
X377400000Y81100000D02*
X377400000Y81500000D01*
X365100000Y95300000D02*
X362200000Y98200000D01*
X390000000Y80500000D02*
X391900000Y80500000D01*
X375999999Y84500000D02*
X375990000Y84540000D01*
X392300000Y81600000D02*
X392300000Y81700000D01*
X529700000Y80600000D02*
X529690000Y80558001D01*
X388600000Y34500000D02*
X387100000Y36000000D01*
X377400000Y81500000D02*
X375999999Y82900000D01*
X391900000Y80500000D02*
X392400000Y81000000D01*
X392400000Y81500000D02*
X392300000Y81600000D01*
X451900000Y40700000D02*
X450400000Y42200000D01*
X392200000Y81800000D02*
X392300000Y81700000D01*
%TO.N,Net-(D19-A)*%
X438300000Y70000000D02*
X437500000Y70800000D01*
X370100000Y107500000D02*
X368400000Y109200000D01*
X389200000Y88900000D02*
X389200000Y90100000D01*
X427200000Y76200000D02*
X424200000Y79200000D01*
X439300000Y68100000D02*
X438300000Y69100000D01*
X390200000Y87900000D02*
X389200000Y88900000D01*
X438300000Y69100000D02*
X438300000Y70000000D01*
X368400000Y109200000D02*
X368400000Y110300000D01*
%TO.N,Net-(D59-A)*%
X542600000Y106800000D02*
X540400000Y106800000D01*
%TO.N,Net-(D83-A)*%
X570200000Y92800000D02*
X571300000Y91700000D01*
X437700000Y87900000D02*
X438500000Y88700000D01*
X438500000Y88700000D02*
X441900000Y88700000D01*
X412500000Y66400000D02*
X415000000Y68900000D01*
X478900000Y89800000D02*
X480000000Y88700000D01*
X412200000Y65900000D02*
X412500000Y66200000D01*
X412500000Y66200000D02*
X412500000Y66400000D01*
%TO.N,Net-(D26-A)*%
X353800000Y86500000D02*
X354500000Y85800000D01*
X351300000Y86500000D02*
X353800000Y86500000D01*
X379600000Y93200000D02*
X384000000Y97600000D01*
%TO.N,Net-(D52-A)*%
X384900000Y30500000D02*
X380200000Y30500000D01*
X386900000Y33100000D02*
X386900000Y32500000D01*
X467600000Y57300000D02*
X464600000Y54300000D01*
X415600000Y36600000D02*
X414500000Y35500000D01*
X441500000Y48000000D02*
X439900000Y46400000D01*
X386900000Y32500000D02*
X384900000Y30500000D01*
%TO.N,Net-(D66-A)*%
X462800000Y56900000D02*
X463900000Y58000000D01*
%TO.N,Net-(D62-A)*%
X385200000Y85400000D02*
X385800000Y85400000D01*
X388800000Y86500000D02*
X389300000Y86000000D01*
X385800000Y85400000D02*
X386900000Y86500000D01*
X386900000Y86500000D02*
X388800000Y86500000D01*
%TO.N,Net-(D78-A)*%
X483600000Y124900000D02*
X483400000Y125100000D01*
X503400000Y125600000D02*
X501199999Y125600000D01*
X401700000Y128200000D02*
X401700000Y125100000D01*
X485400000Y124900000D02*
X483600000Y124900000D01*
%TO.N,Net-(D80-A)*%
X401400000Y103600000D02*
X401400000Y106100000D01*
%TO.N,Net-(D85-A)*%
X321200000Y46600000D02*
X319000000Y48800000D01*
X316700000Y48800000D02*
X314300000Y46400000D01*
X326000000Y46600000D02*
X321200000Y46600000D01*
X319000000Y48800000D02*
X316700000Y48800000D01*
%TD*%
M02*
