%TF.GenerationSoftware,KiCad,Pcbnew,10.0.3*%
%TF.CreationDate,2026-07-03T22:07:11+05:30*%
%TF.ProjectId,keyboard,6b657962-6f61-4726-942e-6b696361645f,rev?*%
%TF.SameCoordinates,Original*%
%TF.FileFunction,Soldermask,Bot*%
%TF.FilePolarity,Negative*%
%FSLAX46Y46*%
G04 Gerber Fmt 4.6, Leading zero omitted, Abs format (unit mm)*
G04 Created by KiCad (PCBNEW 10.0.3) date 2026-07-03 22:07:11*
%MOMM*%
%LPD*%
G01*
G04 APERTURE LIST*
G04 Aperture macros list*
%AMRoundRect*
0 Rectangle with rounded corners*
0 $1 Rounding radius*
0 $2 $3 $4 $5 $6 $7 $8 $9 X,Y pos of 4 corners*
0 Add a 4 corners polygon primitive as box body*
4,1,4,$2,$3,$4,$5,$6,$7,$8,$9,$2,$3,0*
0 Add four circle primitives for the rounded corners*
1,1,$1+$1,$2,$3*
1,1,$1+$1,$4,$5*
1,1,$1+$1,$6,$7*
1,1,$1+$1,$8,$9*
0 Add four rect primitives between the rounded corners*
20,1,$1+$1,$2,$3,$4,$5,0*
20,1,$1+$1,$4,$5,$6,$7,0*
20,1,$1+$1,$6,$7,$8,$9,0*
20,1,$1+$1,$8,$9,$2,$3,0*%
%AMFreePoly0*
4,1,37,0.603843,0.796157,0.639018,0.796157,0.711114,0.766294,0.766294,0.711114,0.796157,0.639018,0.796157,0.603843,0.800000,0.600000,0.800000,-0.600000,0.796157,-0.603843,0.796157,-0.639018,0.766294,-0.711114,0.711114,-0.766294,0.639018,-0.796157,0.603843,-0.796157,0.600000,-0.800000,0.000000,-0.800000,0.000000,-0.796148,-0.078414,-0.796148,-0.232228,-0.765552,-0.377117,-0.705537,
-0.507515,-0.618408,-0.618408,-0.507515,-0.705537,-0.377117,-0.765552,-0.232228,-0.796148,-0.078414,-0.796148,0.078414,-0.765552,0.232228,-0.705537,0.377117,-0.618408,0.507515,-0.507515,0.618408,-0.377117,0.705537,-0.232228,0.765552,-0.078414,0.796148,0.000000,0.796148,0.000000,0.800000,0.600000,0.800000,0.603843,0.796157,0.603843,0.796157,$1*%
%AMFreePoly1*
4,1,37,0.000000,0.796148,0.078414,0.796148,0.232228,0.765552,0.377117,0.705537,0.507515,0.618408,0.618408,0.507515,0.705537,0.377117,0.765552,0.232228,0.796148,0.078414,0.796148,-0.078414,0.765552,-0.232228,0.705537,-0.377117,0.618408,-0.507515,0.507515,-0.618408,0.377117,-0.705537,0.232228,-0.765552,0.078414,-0.796148,0.000000,-0.796148,0.000000,-0.800000,-0.600000,-0.800000,
-0.603843,-0.796157,-0.639018,-0.796157,-0.711114,-0.766294,-0.766294,-0.711114,-0.796157,-0.639018,-0.796157,-0.603843,-0.800000,-0.600000,-0.800000,0.600000,-0.796157,0.603843,-0.796157,0.639018,-0.766294,0.711114,-0.711114,0.766294,-0.639018,0.796157,-0.603843,0.796157,-0.600000,0.800000,0.000000,0.800000,0.000000,0.796148,0.000000,0.796148,$1*%
G04 Aperture macros list end*
%ADD10C,2.300000*%
%ADD11C,1.750000*%
%ADD12C,3.987800*%
%ADD13RoundRect,0.250000X0.550000X-0.550000X0.550000X0.550000X-0.550000X0.550000X-0.550000X-0.550000X0*%
%ADD14C,1.600000*%
%ADD15C,3.200000*%
%ADD16C,3.048000*%
%ADD17RoundRect,0.200000X-0.600000X-0.600000X0.600000X-0.600000X0.600000X0.600000X-0.600000X0.600000X0*%
%ADD18FreePoly0,0.000000*%
%ADD19FreePoly1,0.000000*%
G04 APERTURE END LIST*
D10*
%TO.C,SW17*%
X586770000Y107620000D03*
X580420000Y105080000D03*
D11*
X589310000Y102540000D03*
D12*
X584230000Y102540000D03*
D11*
X579150000Y102540000D03*
%TD*%
D13*
%TO.C,D59*%
X294300000Y59380000D03*
D14*
X294300000Y67000000D03*
%TD*%
D11*
%TO.C,SW60*%
X279720000Y63000000D03*
D12*
X284800000Y63000000D03*
D11*
X289880000Y63000000D03*
D10*
X280990000Y65540000D03*
X287340000Y68080000D03*
%TD*%
D13*
%TO.C,D7*%
X427800000Y116690000D03*
D14*
X427800000Y124310000D03*
%TD*%
D11*
%TO.C,SW43*%
X355720000Y82000000D03*
D12*
X360800000Y82000000D03*
D11*
X365880000Y82000000D03*
D10*
X356990000Y84540000D03*
X363340000Y87080000D03*
%TD*%
D11*
%TO.C,SW12*%
X337030000Y120040000D03*
D12*
X342110000Y120040000D03*
D11*
X347190000Y120040000D03*
D10*
X338300000Y122580000D03*
X344650000Y125120000D03*
%TD*%
D11*
%TO.C,SW48*%
X260720000Y82000000D03*
D12*
X265800000Y82000000D03*
D11*
X270880000Y82000000D03*
D10*
X261990000Y84540000D03*
X268340000Y87080000D03*
%TD*%
D13*
%TO.C,D47*%
X275300000Y78380000D03*
D14*
X275300000Y86000000D03*
%TD*%
D13*
%TO.C,D29*%
X446800000Y96880000D03*
D14*
X446800000Y104500000D03*
%TD*%
D13*
%TO.C,D9*%
X370800000Y116380000D03*
D14*
X370800000Y124000000D03*
%TD*%
D13*
%TO.C,D2*%
X574920000Y117460000D03*
D14*
X574920000Y125080000D03*
%TD*%
D13*
%TO.C,D22*%
X465300000Y97380000D03*
D14*
X465300000Y105000000D03*
%TD*%
D13*
%TO.C,D41*%
X313300000Y78880000D03*
D14*
X313300000Y86500000D03*
%TD*%
D13*
%TO.C,D60*%
X275300000Y58880000D03*
D14*
X275300000Y66500000D03*
%TD*%
D11*
%TO.C,SW10*%
X375030000Y120040000D03*
D12*
X380110000Y120040000D03*
D11*
X385190000Y120040000D03*
D10*
X376300000Y122580000D03*
X382650000Y125120000D03*
%TD*%
D13*
%TO.C,D66*%
X313300000Y40880000D03*
D14*
X313300000Y48500000D03*
%TD*%
D11*
%TO.C,SW14*%
X298800000Y120000000D03*
D12*
X303880000Y120000000D03*
D11*
X308960000Y120000000D03*
D10*
X300070000Y122540000D03*
X306420000Y125080000D03*
%TD*%
D13*
%TO.C,D87*%
X275300000Y20880000D03*
D14*
X275300000Y28500000D03*
%TD*%
D13*
%TO.C,D65*%
X352300000Y40880000D03*
D14*
X352300000Y48500000D03*
%TD*%
D13*
%TO.C,D8*%
X389800000Y116380000D03*
D14*
X389800000Y124000000D03*
%TD*%
D11*
%TO.C,SW21*%
X469680000Y100920000D03*
D12*
X474760000Y100920000D03*
D11*
X479840000Y100920000D03*
D10*
X470950000Y103460000D03*
X477300000Y106000000D03*
%TD*%
D15*
%TO.C,H1*%
X226740000Y-174130000D03*
%TD*%
D13*
%TO.C,D28*%
X275300000Y97380000D03*
D14*
X275300000Y105000000D03*
%TD*%
D13*
%TO.C,D86*%
X379300000Y20880000D03*
D14*
X379300000Y28500000D03*
%TD*%
D13*
%TO.C,D54*%
X351800000Y59880000D03*
D14*
X351800000Y67500000D03*
%TD*%
D15*
%TO.C,H3*%
X226740000Y-190030000D03*
%TD*%
D11*
%TO.C,SW66*%
X432450000Y43960000D03*
D12*
X437530000Y43960000D03*
D11*
X442610000Y43960000D03*
D10*
X433720000Y46500000D03*
X440070000Y49040000D03*
%TD*%
D13*
%TO.C,D23*%
X370300000Y97380000D03*
D14*
X370300000Y105000000D03*
%TD*%
D13*
%TO.C,D56*%
X389300000Y59380000D03*
D14*
X389300000Y67000000D03*
%TD*%
D13*
%TO.C,D24*%
X351300000Y97380000D03*
D14*
X351300000Y105000000D03*
%TD*%
D13*
%TO.C,D64*%
X446800000Y40880000D03*
D14*
X446800000Y48500000D03*
%TD*%
D13*
%TO.C,D83*%
X294300000Y21880000D03*
D14*
X294300000Y29500000D03*
%TD*%
D11*
%TO.C,SW61*%
X260720000Y63000000D03*
D12*
X265800000Y63000000D03*
D11*
X270880000Y63000000D03*
D10*
X261990000Y65540000D03*
X268340000Y68080000D03*
%TD*%
D13*
%TO.C,D49*%
X408300000Y60380000D03*
D14*
X408300000Y68000000D03*
%TD*%
D13*
%TO.C,D63*%
X485300000Y41190000D03*
D14*
X485300000Y48810000D03*
%TD*%
D11*
%TO.C,SW54*%
X393640000Y63000000D03*
D12*
X398720000Y63000000D03*
D11*
X403800000Y63000000D03*
D10*
X394910000Y65540000D03*
X401260000Y68080000D03*
%TD*%
D11*
%TO.C,SW6*%
X451220000Y120040000D03*
D12*
X456300000Y120040000D03*
D11*
X461380000Y120040000D03*
D10*
X452490000Y122580000D03*
X458840000Y125120000D03*
%TD*%
D13*
%TO.C,D6*%
X465800000Y116380000D03*
D14*
X465800000Y124000000D03*
%TD*%
D13*
%TO.C,D44*%
X408300000Y78380000D03*
D14*
X408300000Y86000000D03*
%TD*%
D11*
%TO.C,SW86*%
X279690000Y24960000D03*
D12*
X284770000Y24960000D03*
D11*
X289850000Y24960000D03*
D10*
X280960000Y27500000D03*
X287310000Y30040000D03*
%TD*%
D13*
%TO.C,D50*%
X503300000Y59880000D03*
D14*
X503300000Y67500000D03*
%TD*%
D13*
%TO.C,D3*%
X555920000Y117460000D03*
D14*
X555920000Y125080000D03*
%TD*%
D13*
%TO.C,D4*%
X351800000Y117000000D03*
D14*
X351800000Y124620000D03*
%TD*%
D11*
%TO.C,SW15*%
X279800000Y120000000D03*
D12*
X284880000Y120000000D03*
D11*
X289960000Y120000000D03*
D10*
X281070000Y122540000D03*
X287420000Y125080000D03*
%TD*%
D11*
%TO.C,SW59*%
X298640000Y63000000D03*
D12*
X303720000Y63000000D03*
D11*
X308800000Y63000000D03*
D10*
X299910000Y65540000D03*
X306260000Y68080000D03*
%TD*%
D13*
%TO.C,D13*%
X503800000Y115880000D03*
D14*
X503800000Y123500000D03*
%TD*%
D11*
%TO.C,SW62*%
X559840000Y45580000D03*
D12*
X564920000Y45580000D03*
D11*
X570000000Y45580000D03*
D10*
X561110000Y48120000D03*
X567460000Y50660000D03*
%TD*%
D11*
%TO.C,SW29*%
X317800000Y101000000D03*
D12*
X322880000Y101000000D03*
D11*
X327960000Y101000000D03*
D10*
X319070000Y103540000D03*
X325420000Y106080000D03*
%TD*%
D11*
%TO.C,SW65*%
X451370000Y43960000D03*
D12*
X456450000Y43960000D03*
D11*
X461530000Y43960000D03*
D10*
X452640000Y46500000D03*
X458990000Y49040000D03*
%TD*%
D11*
%TO.C,SW44*%
X336720000Y82000000D03*
D12*
X341800000Y82000000D03*
D11*
X346880000Y82000000D03*
D10*
X337990000Y84540000D03*
X344340000Y87080000D03*
%TD*%
D11*
%TO.C,SW78*%
X541260000Y26580000D03*
D12*
X546340000Y26580000D03*
D11*
X551420000Y26580000D03*
D10*
X542530000Y29120000D03*
X548880000Y31660000D03*
%TD*%
D16*
%TO.C,S2*%
X396513750Y32065000D03*
D12*
X396513750Y16825000D03*
D16*
X420326250Y32065000D03*
D12*
X420326250Y16825000D03*
%TD*%
D11*
%TO.C,SW40*%
X412720000Y82000000D03*
D12*
X417800000Y82000000D03*
D11*
X422880000Y82000000D03*
D10*
X413990000Y84540000D03*
X420340000Y87080000D03*
%TD*%
D13*
%TO.C,D26*%
X313300000Y97380000D03*
D14*
X313300000Y105000000D03*
%TD*%
D11*
%TO.C,SW39*%
X431720000Y82000000D03*
D12*
X436800000Y82000000D03*
D11*
X441880000Y82000000D03*
D10*
X432990000Y84540000D03*
X439340000Y87080000D03*
%TD*%
D16*
%TO.C,S1*%
X357893750Y32485000D03*
D12*
X357893750Y17245000D03*
D16*
X381706250Y32485000D03*
D12*
X381706250Y17245000D03*
%TD*%
D11*
%TO.C,SW30*%
X298760000Y100920000D03*
D12*
X303840000Y100920000D03*
D11*
X308920000Y100920000D03*
D10*
X300030000Y103460000D03*
X306380000Y106000000D03*
%TD*%
D11*
%TO.C,SW88*%
X327626250Y24255000D03*
D12*
X332706250Y24255000D03*
D11*
X337786250Y24255000D03*
D10*
X328896250Y26795000D03*
X335246250Y29335000D03*
%TD*%
D11*
%TO.C,SW32*%
X260910000Y101000000D03*
D12*
X265990000Y101000000D03*
D11*
X271070000Y101000000D03*
D10*
X262180000Y103540000D03*
X268530000Y106080000D03*
%TD*%
D11*
%TO.C,SW53*%
X412720000Y63000000D03*
D12*
X417800000Y63000000D03*
D11*
X422880000Y63000000D03*
D10*
X413990000Y65540000D03*
X420340000Y68080000D03*
%TD*%
D13*
%TO.C,D25*%
X332300000Y97380000D03*
D14*
X332300000Y105000000D03*
%TD*%
D15*
%TO.C,H2*%
X226740000Y-182080000D03*
%TD*%
D13*
%TO.C,D74*%
X428300000Y39880000D03*
D14*
X428300000Y47500000D03*
%TD*%
D11*
%TO.C,SW83*%
X432220000Y25000000D03*
D12*
X437300000Y25000000D03*
D11*
X442380000Y25000000D03*
D10*
X433490000Y27540000D03*
X439840000Y30080000D03*
%TD*%
D13*
%TO.C,D79*%
X465800000Y22380000D03*
D14*
X465800000Y30000000D03*
%TD*%
D11*
%TO.C,SW33*%
X578840000Y83580000D03*
D12*
X583920000Y83580000D03*
D11*
X589000000Y83580000D03*
D10*
X580110000Y86120000D03*
X586460000Y88660000D03*
%TD*%
D11*
%TO.C,SW76*%
X579340000Y26580000D03*
D12*
X584420000Y26580000D03*
D11*
X589500000Y26580000D03*
D10*
X580610000Y29120000D03*
X586960000Y31660000D03*
%TD*%
D13*
%TO.C,D71*%
X370800000Y40380000D03*
D14*
X370800000Y48000000D03*
%TD*%
D13*
%TO.C,D69*%
X466300000Y40380000D03*
D14*
X466300000Y48000000D03*
%TD*%
D13*
%TO.C,D36*%
X503800000Y79380000D03*
D14*
X503800000Y87000000D03*
%TD*%
D11*
%TO.C,SW45*%
X317720000Y82000000D03*
D12*
X322800000Y82000000D03*
D11*
X327880000Y82000000D03*
D10*
X318990000Y84540000D03*
X325340000Y87080000D03*
%TD*%
D11*
%TO.C,SW31*%
X279800000Y101000000D03*
D12*
X284880000Y101000000D03*
D11*
X289960000Y101000000D03*
D10*
X281070000Y103540000D03*
X287420000Y106080000D03*
%TD*%
D13*
%TO.C,D42*%
X445800000Y78380000D03*
D14*
X445800000Y86000000D03*
%TD*%
D11*
%TO.C,SW72*%
X317720000Y44000000D03*
D12*
X322800000Y44000000D03*
D11*
X327880000Y44000000D03*
D10*
X318990000Y46540000D03*
X325340000Y49080000D03*
%TD*%
D11*
%TO.C,SW38*%
X450720000Y82000000D03*
D12*
X455800000Y82000000D03*
D11*
X460880000Y82000000D03*
D10*
X451990000Y84540000D03*
X458340000Y87080000D03*
%TD*%
D13*
%TO.C,D32*%
X408300000Y96380000D03*
D14*
X408300000Y104000000D03*
%TD*%
D11*
%TO.C,SW87*%
X260690000Y24960000D03*
D12*
X265770000Y24960000D03*
D11*
X270850000Y24960000D03*
D10*
X261960000Y27500000D03*
X268310000Y30040000D03*
%TD*%
D13*
%TO.C,D40*%
X332300000Y79190000D03*
D14*
X332300000Y86810000D03*
%TD*%
D13*
%TO.C,D57*%
X332800000Y59380000D03*
D14*
X332800000Y67000000D03*
%TD*%
D13*
%TO.C,D70*%
X390800000Y40380000D03*
D14*
X390800000Y48000000D03*
%TD*%
D11*
%TO.C,SW70*%
X356530000Y43960000D03*
D12*
X361610000Y43960000D03*
D11*
X366690000Y43960000D03*
D10*
X357800000Y46500000D03*
X364150000Y49040000D03*
%TD*%
D13*
%TO.C,D68*%
X275300000Y40880000D03*
D14*
X275300000Y48500000D03*
%TD*%
D13*
%TO.C,D34*%
X574920000Y80460000D03*
D14*
X574920000Y88080000D03*
%TD*%
D11*
%TO.C,SW34*%
X559840000Y83580000D03*
D12*
X564920000Y83580000D03*
D11*
X570000000Y83580000D03*
D10*
X561110000Y86120000D03*
X567460000Y88660000D03*
%TD*%
D11*
%TO.C,SW20*%
X488720000Y101000000D03*
D12*
X493800000Y101000000D03*
D11*
X498880000Y101000000D03*
D10*
X489990000Y103540000D03*
X496340000Y106080000D03*
%TD*%
D11*
%TO.C,SW18*%
X559800000Y102500000D03*
D12*
X564880000Y102500000D03*
D11*
X569960000Y102500000D03*
D10*
X561070000Y105040000D03*
X567420000Y107580000D03*
%TD*%
D11*
%TO.C,SW67*%
X413450000Y43960000D03*
D12*
X418530000Y43960000D03*
D11*
X423610000Y43960000D03*
D10*
X414720000Y46500000D03*
X421070000Y49040000D03*
%TD*%
D13*
%TO.C,D76*%
X593800000Y22380000D03*
D14*
X593800000Y30000000D03*
%TD*%
D13*
%TO.C,D18*%
X555920000Y98460000D03*
D14*
X555920000Y106080000D03*
%TD*%
D15*
%TO.C,H4*%
X226740000Y-197980000D03*
%TD*%
D11*
%TO.C,SW36*%
X488720000Y82000000D03*
D12*
X493800000Y82000000D03*
D11*
X498880000Y82000000D03*
D10*
X489990000Y84540000D03*
X496340000Y87080000D03*
%TD*%
D11*
%TO.C,SW16*%
X260800000Y120000000D03*
D12*
X265880000Y120000000D03*
D11*
X270960000Y120000000D03*
D10*
X262070000Y122540000D03*
X268420000Y125080000D03*
%TD*%
D11*
%TO.C,SW58*%
X317720000Y63000000D03*
D12*
X322800000Y63000000D03*
D11*
X327880000Y63000000D03*
D10*
X318990000Y65540000D03*
X325340000Y68080000D03*
%TD*%
D13*
%TO.C,D85*%
X503800000Y20880000D03*
D14*
X503800000Y28500000D03*
%TD*%
D13*
%TO.C,D80*%
X417800000Y22380000D03*
D14*
X417800000Y30000000D03*
%TD*%
D13*
%TO.C,D72*%
X332800000Y40380000D03*
D14*
X332800000Y48000000D03*
%TD*%
D13*
%TO.C,D81*%
X484800000Y21880000D03*
D14*
X484800000Y29500000D03*
%TD*%
D11*
%TO.C,SW55*%
X374720000Y63000000D03*
D12*
X379800000Y63000000D03*
D11*
X384880000Y63000000D03*
D10*
X375990000Y65540000D03*
X382340000Y68080000D03*
%TD*%
D11*
%TO.C,SW56*%
X355720000Y63000000D03*
D12*
X360800000Y63000000D03*
D11*
X365880000Y63000000D03*
D10*
X356990000Y65540000D03*
X363340000Y68080000D03*
%TD*%
D11*
%TO.C,SW25*%
X393800000Y101000000D03*
D12*
X398880000Y101000000D03*
D11*
X403960000Y101000000D03*
D10*
X395070000Y103540000D03*
X401420000Y106080000D03*
%TD*%
D13*
%TO.C,D46*%
X294300000Y78380000D03*
D14*
X294300000Y86000000D03*
%TD*%
D11*
%TO.C,SW68*%
X394530000Y43960000D03*
D12*
X399610000Y43960000D03*
D11*
X404690000Y43960000D03*
D10*
X395800000Y46500000D03*
X402150000Y49040000D03*
%TD*%
D13*
%TO.C,D78*%
X555800000Y22380000D03*
D14*
X555800000Y30000000D03*
%TD*%
D13*
%TO.C,D21*%
X502300000Y97380000D03*
D14*
X502300000Y105000000D03*
%TD*%
D13*
%TO.C,D77*%
X574920000Y22460000D03*
D14*
X574920000Y30080000D03*
%TD*%
D11*
%TO.C,SW77*%
X560260000Y26580000D03*
D12*
X565340000Y26580000D03*
D11*
X570420000Y26580000D03*
D10*
X561530000Y29120000D03*
X567880000Y31660000D03*
%TD*%
D13*
%TO.C,D38*%
X370300000Y78880000D03*
D14*
X370300000Y86500000D03*
%TD*%
D13*
%TO.C,D45*%
X389300000Y78380000D03*
D14*
X389300000Y86000000D03*
%TD*%
D11*
%TO.C,SW42*%
X374720000Y82000000D03*
D12*
X379800000Y82000000D03*
D11*
X384880000Y82000000D03*
D10*
X375990000Y84540000D03*
X382340000Y87080000D03*
%TD*%
D13*
%TO.C,D14*%
X484800000Y115880000D03*
D14*
X484800000Y123500000D03*
%TD*%
D11*
%TO.C,SW7*%
X432220000Y120000000D03*
D12*
X437300000Y120000000D03*
D11*
X442380000Y120000000D03*
D10*
X433490000Y122540000D03*
X439840000Y125080000D03*
%TD*%
D11*
%TO.C,SW27*%
X355720000Y101000000D03*
D12*
X360800000Y101000000D03*
D11*
X365880000Y101000000D03*
D10*
X356990000Y103540000D03*
X363340000Y106080000D03*
%TD*%
D11*
%TO.C,SW52*%
X431640000Y63000000D03*
D12*
X436720000Y63000000D03*
D11*
X441800000Y63000000D03*
D10*
X432910000Y65540000D03*
X439260000Y68080000D03*
%TD*%
D11*
%TO.C,SW23*%
X431800000Y101000000D03*
D12*
X436880000Y101000000D03*
D11*
X441960000Y101000000D03*
D10*
X433070000Y103540000D03*
X439420000Y106080000D03*
%TD*%
D11*
%TO.C,SW24*%
X412800000Y101040000D03*
D12*
X417880000Y101040000D03*
D11*
X422960000Y101040000D03*
D10*
X414070000Y103580000D03*
X420420000Y106120000D03*
%TD*%
D11*
%TO.C,SW47*%
X279720000Y82000000D03*
D12*
X284800000Y82000000D03*
D11*
X289880000Y82000000D03*
D10*
X280990000Y84540000D03*
X287340000Y87080000D03*
%TD*%
D13*
%TO.C,D37*%
X465800000Y78880000D03*
D14*
X465800000Y86500000D03*
%TD*%
D11*
%TO.C,SW41*%
X393640000Y82000000D03*
D12*
X398720000Y82000000D03*
D11*
X403800000Y82000000D03*
D10*
X394910000Y84540000D03*
X401260000Y87080000D03*
%TD*%
D11*
%TO.C,SW73*%
X298720000Y44000000D03*
D12*
X303800000Y44000000D03*
D11*
X308880000Y44000000D03*
D10*
X299990000Y46540000D03*
X306340000Y49080000D03*
%TD*%
D11*
%TO.C,SW19*%
X540800000Y102500000D03*
D12*
X545880000Y102500000D03*
D11*
X550960000Y102500000D03*
D10*
X542070000Y105040000D03*
X548420000Y107580000D03*
%TD*%
D11*
%TO.C,SW9*%
X394030000Y120040000D03*
D12*
X399110000Y120040000D03*
D11*
X404190000Y120040000D03*
D10*
X395300000Y122580000D03*
X401650000Y125120000D03*
%TD*%
D11*
%TO.C,SW50*%
X469720000Y63000000D03*
D12*
X474800000Y63000000D03*
D11*
X479880000Y63000000D03*
D10*
X470990000Y65540000D03*
X477340000Y68080000D03*
%TD*%
D11*
%TO.C,SW4*%
X489220000Y120000000D03*
D12*
X494300000Y120000000D03*
D11*
X499380000Y120000000D03*
D10*
X490490000Y122540000D03*
X496840000Y125080000D03*
%TD*%
D13*
%TO.C,D75*%
X408800000Y39880000D03*
D14*
X408800000Y47500000D03*
%TD*%
D11*
%TO.C,SW84*%
X403300000Y25000000D03*
D12*
X408380000Y25000000D03*
D11*
X413460000Y25000000D03*
D10*
X404570000Y27540000D03*
X410920000Y30080000D03*
%TD*%
D13*
%TO.C,D12*%
X275300000Y116690000D03*
D14*
X275300000Y124310000D03*
%TD*%
D13*
%TO.C,D52*%
X427300000Y59880000D03*
D14*
X427300000Y67500000D03*
%TD*%
D11*
%TO.C,SW11*%
X356030000Y120040000D03*
D12*
X361110000Y120040000D03*
D11*
X366190000Y120040000D03*
D10*
X357300000Y122580000D03*
X363650000Y125120000D03*
%TD*%
D11*
%TO.C,SW46*%
X298720000Y82000000D03*
D12*
X303800000Y82000000D03*
D11*
X308880000Y82000000D03*
D10*
X299990000Y84540000D03*
X306340000Y87080000D03*
%TD*%
D13*
%TO.C,D31*%
X389300000Y96880000D03*
D14*
X389300000Y104500000D03*
%TD*%
D11*
%TO.C,SW2*%
X560300000Y121500000D03*
D12*
X565380000Y121500000D03*
D11*
X570460000Y121500000D03*
D10*
X561570000Y124040000D03*
X567920000Y126580000D03*
%TD*%
D11*
%TO.C,SW71*%
X337450000Y43960000D03*
D12*
X342530000Y43960000D03*
D11*
X347610000Y43960000D03*
D10*
X338720000Y46500000D03*
X345070000Y49040000D03*
%TD*%
D13*
%TO.C,D5*%
X332800000Y116880000D03*
D14*
X332800000Y124500000D03*
%TD*%
D13*
%TO.C,D39*%
X351300000Y78880000D03*
D14*
X351300000Y86500000D03*
%TD*%
D11*
%TO.C,SW69*%
X375530000Y43960000D03*
D12*
X380610000Y43960000D03*
D11*
X385690000Y43960000D03*
D10*
X376800000Y46500000D03*
X383150000Y49040000D03*
%TD*%
D13*
%TO.C,D58*%
X313300000Y59380000D03*
D14*
X313300000Y67000000D03*
%TD*%
D17*
%TO.C,A1*%
X511910000Y128817500D03*
D14*
X511910000Y126277500D03*
D18*
X511910000Y123737500D03*
D14*
X511910000Y121197500D03*
X511910000Y118657500D03*
X511910000Y116117500D03*
X511910000Y113577500D03*
D18*
X511910000Y111037500D03*
D14*
X511910000Y108497500D03*
X511910000Y105957500D03*
X511910000Y103417500D03*
X511910000Y100877500D03*
D18*
X511910000Y98337500D03*
D14*
X511910000Y95797500D03*
X511910000Y93257500D03*
X511910000Y90717500D03*
X511910000Y88177500D03*
D18*
X511910000Y85637500D03*
D14*
X511910000Y83097500D03*
X511910000Y80557500D03*
X529690000Y80557500D03*
X529690000Y83097500D03*
D19*
X529690000Y85637500D03*
D14*
X529690000Y88177500D03*
X529690000Y90717500D03*
X529690000Y93257500D03*
X529690000Y95797500D03*
D19*
X529690000Y98337500D03*
D14*
X529690000Y100877500D03*
X529690000Y103417500D03*
X529690000Y105957500D03*
X529690000Y108497500D03*
D19*
X529690000Y111037500D03*
D14*
X529690000Y113577500D03*
X529690000Y116117500D03*
X529690000Y118657500D03*
X529690000Y121197500D03*
D19*
X529690000Y123737500D03*
D14*
X529690000Y126277500D03*
X529690000Y128817500D03*
%TD*%
D11*
%TO.C,SW51*%
X450720000Y63000000D03*
D12*
X455800000Y63000000D03*
D11*
X460880000Y63000000D03*
D10*
X451990000Y65540000D03*
X458340000Y68080000D03*
%TD*%
D13*
%TO.C,D43*%
X427300000Y78380000D03*
D14*
X427300000Y86000000D03*
%TD*%
D13*
%TO.C,D84*%
X313300000Y21380000D03*
D14*
X313300000Y29000000D03*
%TD*%
D11*
%TO.C,SW63*%
X489800000Y44000000D03*
D12*
X494880000Y44000000D03*
D11*
X499960000Y44000000D03*
D10*
X491070000Y46540000D03*
X497420000Y49080000D03*
%TD*%
D13*
%TO.C,D15*%
X447300000Y116190000D03*
D14*
X447300000Y123810000D03*
%TD*%
D13*
%TO.C,D61*%
X465300000Y58380000D03*
D14*
X465300000Y66000000D03*
%TD*%
D13*
%TO.C,D10*%
X313800000Y116380000D03*
D14*
X313800000Y124000000D03*
%TD*%
D13*
%TO.C,D67*%
X294300000Y40880000D03*
D14*
X294300000Y48500000D03*
%TD*%
D13*
%TO.C,D1*%
X593920000Y117960000D03*
D14*
X593920000Y125580000D03*
%TD*%
D16*
%TO.C,S3*%
X320300000Y31740000D03*
D12*
X320300000Y16500000D03*
D16*
X344112500Y31740000D03*
D12*
X344112500Y16500000D03*
%TD*%
D11*
%TO.C,SW5*%
X470220000Y120000000D03*
D12*
X475300000Y120000000D03*
D11*
X480380000Y120000000D03*
D10*
X471490000Y122540000D03*
X477840000Y125080000D03*
%TD*%
D13*
%TO.C,D16*%
X408800000Y115880000D03*
D14*
X408800000Y123500000D03*
%TD*%
D11*
%TO.C,SW1*%
X579340000Y121420000D03*
D12*
X584420000Y121420000D03*
D11*
X589500000Y121420000D03*
D10*
X580610000Y123960000D03*
X586960000Y126500000D03*
%TD*%
D13*
%TO.C,D51*%
X446300000Y59880000D03*
D14*
X446300000Y67500000D03*
%TD*%
D11*
%TO.C,SW49*%
X488720000Y63000000D03*
D12*
X493800000Y63000000D03*
D11*
X498880000Y63000000D03*
D10*
X489990000Y65540000D03*
X496340000Y68080000D03*
%TD*%
D13*
%TO.C,D19*%
X593920000Y97960000D03*
D14*
X593920000Y105580000D03*
%TD*%
D11*
%TO.C,SW79*%
X364720000Y25500000D03*
D12*
X369800000Y25500000D03*
D11*
X374880000Y25500000D03*
D10*
X365990000Y28040000D03*
X372340000Y30580000D03*
%TD*%
D13*
%TO.C,D53*%
X370300000Y59880000D03*
D14*
X370300000Y67500000D03*
%TD*%
D11*
%TO.C,SW57*%
X336720000Y63000000D03*
D12*
X341800000Y63000000D03*
D11*
X346880000Y63000000D03*
D10*
X337990000Y65540000D03*
X344340000Y68080000D03*
%TD*%
D13*
%TO.C,D35*%
X554920000Y80460000D03*
D14*
X554920000Y88080000D03*
%TD*%
D13*
%TO.C,D17*%
X574420000Y98960000D03*
D14*
X574420000Y106580000D03*
%TD*%
D11*
%TO.C,SW13*%
X318030000Y120040000D03*
D12*
X323110000Y120040000D03*
D11*
X328190000Y120040000D03*
D10*
X319300000Y122580000D03*
X325650000Y125120000D03*
%TD*%
D11*
%TO.C,SW80*%
X489220000Y25000000D03*
D12*
X494300000Y25000000D03*
D11*
X499380000Y25000000D03*
D10*
X490490000Y27540000D03*
X496840000Y30080000D03*
%TD*%
D13*
%TO.C,D20*%
X483800000Y97880000D03*
D14*
X483800000Y105500000D03*
%TD*%
D13*
%TO.C,D55*%
X484300000Y59380000D03*
D14*
X484300000Y67000000D03*
%TD*%
D13*
%TO.C,D27*%
X294300000Y97690000D03*
D14*
X294300000Y105310000D03*
%TD*%
D11*
%TO.C,SW22*%
X450680000Y100920000D03*
D12*
X455760000Y100920000D03*
D11*
X460840000Y100920000D03*
D10*
X451950000Y103460000D03*
X458300000Y106000000D03*
%TD*%
D11*
%TO.C,SW8*%
X413220000Y120120000D03*
D12*
X418300000Y120120000D03*
D11*
X423380000Y120120000D03*
D10*
X414490000Y122660000D03*
X420840000Y125200000D03*
%TD*%
D13*
%TO.C,D82*%
X446800000Y22190000D03*
D14*
X446800000Y29810000D03*
%TD*%
D11*
%TO.C,SW37*%
X469720000Y82000000D03*
D12*
X474800000Y82000000D03*
D11*
X479880000Y82000000D03*
D10*
X470990000Y84540000D03*
X477340000Y87080000D03*
%TD*%
D13*
%TO.C,D33*%
X593920000Y80460000D03*
D14*
X593920000Y88080000D03*
%TD*%
D11*
%TO.C,SW28*%
X336800000Y101000000D03*
D12*
X341880000Y101000000D03*
D11*
X346960000Y101000000D03*
D10*
X338070000Y103540000D03*
X344420000Y106080000D03*
%TD*%
D13*
%TO.C,D88*%
X342300000Y20380000D03*
D14*
X342300000Y28000000D03*
%TD*%
D11*
%TO.C,SW75*%
X260720000Y44000000D03*
D12*
X265800000Y44000000D03*
D11*
X270880000Y44000000D03*
D10*
X261990000Y46540000D03*
X268340000Y49080000D03*
%TD*%
D11*
%TO.C,SW64*%
X470720000Y44000000D03*
D12*
X475800000Y44000000D03*
D11*
X480880000Y44000000D03*
D10*
X471990000Y46540000D03*
X478340000Y49080000D03*
%TD*%
D11*
%TO.C,SW35*%
X540760000Y83580000D03*
D12*
X545840000Y83580000D03*
D11*
X550920000Y83580000D03*
D10*
X542030000Y86120000D03*
X548380000Y88660000D03*
%TD*%
D11*
%TO.C,SW85*%
X298880000Y25000000D03*
D12*
X303960000Y25000000D03*
D11*
X309040000Y25000000D03*
D10*
X300150000Y27540000D03*
X306500000Y30080000D03*
%TD*%
D13*
%TO.C,D48*%
X483800000Y77880000D03*
D14*
X483800000Y85500000D03*
%TD*%
D13*
%TO.C,D62*%
X574420000Y42770000D03*
D14*
X574420000Y50390000D03*
%TD*%
D11*
%TO.C,SW74*%
X279720000Y44000000D03*
D12*
X284800000Y44000000D03*
D11*
X289880000Y44000000D03*
D10*
X280990000Y46540000D03*
X287340000Y49080000D03*
%TD*%
D11*
%TO.C,SW3*%
X541340000Y121580000D03*
D12*
X546420000Y121580000D03*
D11*
X551500000Y121580000D03*
D10*
X542610000Y124120000D03*
X548960000Y126660000D03*
%TD*%
D13*
%TO.C,D11*%
X294300000Y116690000D03*
D14*
X294300000Y124310000D03*
%TD*%
D13*
%TO.C,D73*%
X504300000Y39880000D03*
D14*
X504300000Y47500000D03*
%TD*%
D11*
%TO.C,SW26*%
X374800000Y101000000D03*
D12*
X379880000Y101000000D03*
D11*
X384960000Y101000000D03*
D10*
X376070000Y103540000D03*
X382420000Y106080000D03*
%TD*%
D13*
%TO.C,D30*%
X427300000Y96880000D03*
D14*
X427300000Y104500000D03*
%TD*%
D11*
%TO.C,SW82*%
X451220000Y25000000D03*
D12*
X456300000Y25000000D03*
D11*
X461380000Y25000000D03*
D10*
X452490000Y27540000D03*
X458840000Y30080000D03*
%TD*%
D11*
%TO.C,SW81*%
X470220000Y25000000D03*
D12*
X475300000Y25000000D03*
D11*
X480380000Y25000000D03*
D10*
X471490000Y27540000D03*
X477840000Y30080000D03*
%TD*%
M02*
